<svg width="312" height="35" viewBox="0 0 312 35" fill="none" xmlns="http://www.w3.org/2000/svg">
<g clip-path="url(#clip0_67_1097)">
<path d="M0 17.0169V15.6793H0.583792C0.855132 15.6793 1.07714 15.638 1.26625 15.5472C1.45537 15.4646 1.60337 15.316 1.71026 15.1096C1.81716 14.9032 1.87471 14.639 1.87471 14.3087V2.95579C1.87471 2.62552 1.82538 2.36131 1.72671 2.17141C1.62804 1.97325 1.49648 1.83288 1.34848 1.7338C1.19225 1.64298 1.0278 1.59344 0.855132 1.59344H0V0.255859H6.25727L9.26668 10.7253L12.0787 0.255859H18.2538V1.59344H17.3493C17.1849 1.59344 17.0369 1.63472 16.8971 1.72555C16.7573 1.80811 16.6422 1.94848 16.5435 2.12187C16.4531 2.30351 16.4037 2.54296 16.4037 2.8402V14.4573C16.4037 14.7381 16.4449 14.9692 16.5353 15.1509C16.6257 15.3325 16.7491 15.4646 16.9135 15.5472C17.078 15.6298 17.2753 15.6793 17.5055 15.6793H18.2456V17.0169H11.3881V15.6793H11.6512C11.9307 15.6793 12.161 15.6298 12.3336 15.5389C12.5063 15.4481 12.6379 15.2912 12.7119 15.0848C12.7859 14.8784 12.8352 14.5894 12.8352 14.2261V2.81543L9.02822 17.0169H7.52352L3.46986 2.79066V14.2014C3.46986 14.6225 3.52742 14.9445 3.65076 15.1509C3.77409 15.3656 3.93854 15.5059 4.16055 15.572C4.38255 15.638 4.65389 15.6793 4.97457 15.6793H5.13902V17.0169H0Z" fill="#F47200"/>
<path d="M18.8379 17.0169V15.6793H19.0188C19.2572 15.6793 19.471 15.6298 19.6601 15.5389C19.8492 15.4481 20.0219 15.283 20.1946 15.0435C20.359 14.8124 20.5153 14.4656 20.6633 14.0115L24.9554 0.255859H28.2032L32.372 14.1518C32.4953 14.5151 32.6269 14.8041 32.7831 15.0353C32.9394 15.2665 33.112 15.4234 33.3176 15.5307C33.5149 15.6298 33.7369 15.6876 33.9836 15.6876H34.2056V17.0251H27.1425V15.6876H27.8826C28.1375 15.6876 28.3512 15.6298 28.5239 15.5224C28.6966 15.4151 28.787 15.1922 28.787 14.8619C28.787 14.7215 28.7788 14.5812 28.7541 14.4491C28.7295 14.317 28.7048 14.1849 28.6719 14.061C28.639 13.9372 28.6061 13.8381 28.5815 13.7803L27.9237 11.551H23.2287L22.7107 13.384C22.686 13.5078 22.6449 13.6564 22.6038 13.8298C22.5544 14.0032 22.5215 14.1766 22.4969 14.3582C22.4722 14.5399 22.4558 14.6968 22.4558 14.8371C22.4558 15.1013 22.5215 15.3078 22.6449 15.4564C22.7682 15.605 22.9902 15.6793 23.2944 15.6793H24.1742V17.0169H18.8379ZM23.648 9.99872H27.4961L26.3285 5.58141C26.2463 5.26766 26.1641 4.9539 26.0901 4.64015C26.0078 4.3264 25.9338 4.00439 25.8598 3.66586C25.7858 3.32734 25.7201 2.98882 25.6461 2.64204C25.5803 2.9723 25.5063 3.30257 25.4241 3.62458C25.3418 3.95485 25.2596 4.27686 25.1856 4.59061C25.1034 4.90436 25.0212 5.21811 24.9225 5.53187L23.6398 9.99047L23.648 9.99872Z" fill="#F47200"/>
<path d="M34.683 17.0169V15.6793H35.6039C35.7931 15.6793 35.9575 15.6215 36.0973 15.5142C36.2371 15.4068 36.344 15.2582 36.4262 15.0683C36.5084 14.8784 36.5495 14.6555 36.5495 14.3913V2.91451C36.5495 2.60075 36.5002 2.3448 36.4015 2.15489C36.3028 1.95673 36.1713 1.81637 36.0068 1.7338C35.8506 1.65124 35.6615 1.6017 35.4477 1.6017H34.683V0.255859H41.7214V1.59344H41.0801C40.891 1.59344 40.7347 1.63472 40.6032 1.72555C40.4716 1.80811 40.3647 1.94848 40.2907 2.12187C40.2167 2.30351 40.1838 2.54296 40.1838 2.8402V7.51347H44.8788V2.88974C44.8788 2.5925 44.8459 2.3448 44.7719 2.14664C44.6979 1.94848 44.5911 1.80811 44.443 1.72555C44.295 1.64298 44.1142 1.59344 43.9004 1.59344H43.3412V0.255859H50.3796V1.59344H49.4752C49.2861 1.59344 49.1216 1.63472 48.9736 1.72555C48.8256 1.80811 48.7105 1.94848 48.6283 2.14664C48.546 2.3448 48.5049 2.5925 48.5049 2.88974V14.3913C48.5049 14.6555 48.546 14.8867 48.6365 15.0848C48.7269 15.283 48.8421 15.4316 48.9901 15.5307C49.1381 15.6298 49.2943 15.6876 49.467 15.6876H50.3714V17.0251H43.333V15.6876H43.8921C44.1059 15.6876 44.2868 15.6298 44.4348 15.5224C44.5828 15.4151 44.6897 15.25 44.7637 15.0435C44.8377 14.8289 44.8706 14.5894 44.8706 14.3004V9.04095H40.1756V14.3913C40.1756 14.6555 40.2085 14.8867 40.2825 15.0683C40.3565 15.2582 40.4552 15.4068 40.595 15.5142C40.7265 15.6215 40.891 15.6793 41.0719 15.6793H41.7132V17.0169H34.6748H34.683Z" fill="#F47200"/>
<path d="M51.3086 17.0169V15.6793H52.1884C52.4022 15.6793 52.5831 15.6298 52.7229 15.5224C52.8626 15.4234 52.9695 15.283 53.0517 15.1013C53.134 14.9197 53.1751 14.6968 53.1751 14.4326V2.95579C53.1751 2.55121 53.1257 2.25397 53.0353 2.06407C52.9449 1.87417 52.8215 1.75032 52.6653 1.68426C52.5091 1.61821 52.3446 1.59344 52.1555 1.59344H51.3168V0.255859H62.8693L62.9515 4.67318H61.4057L61.3071 3.5255C61.2495 2.93102 61.1262 2.49342 60.9124 2.21269C60.7068 1.93196 60.3615 1.7916 59.8764 1.7916H56.7847V7.52172H61.5373V9.02444H56.7847V15.5059H60.4355C60.9042 15.5059 61.2577 15.349 61.488 15.027C61.7182 14.705 61.8744 14.2839 61.9402 13.772L62.08 12.6243H63.6258L63.486 17.0417H51.3086V17.0169Z" fill="#F47200"/>
<path d="M64.6445 17.0169V15.6793H65.2283C65.4832 15.6793 65.7052 15.6463 65.9026 15.572C66.0999 15.4977 66.2479 15.3573 66.3548 15.1509C66.4617 14.9362 66.5192 14.6225 66.5192 14.2014V2.98056C66.5192 2.57598 66.4617 2.27874 66.3548 2.08884C66.2479 1.89894 66.1081 1.77509 65.9355 1.70078C65.7628 1.62647 65.5819 1.59344 65.3928 1.59344H64.6527V0.255859H69.43L76.4684 11.4519V2.98056C76.4684 2.61727 76.419 2.3448 76.3204 2.14664C76.2217 1.94848 76.0901 1.80811 75.9257 1.72555C75.7612 1.64298 75.5886 1.59344 75.383 1.59344H74.6183V0.255859H79.93V1.59344H79.19C78.9598 1.59344 78.7624 1.64298 78.598 1.7338C78.4335 1.82463 78.302 1.9815 78.2033 2.18792C78.1129 2.40259 78.0635 2.69158 78.0635 3.07138V17.0169H76.0573L68.1144 4.31814V14.2014C68.1144 14.6225 68.1555 14.9445 68.2377 15.1509C68.32 15.3656 68.4433 15.5059 68.6077 15.572C68.7722 15.638 68.9777 15.6793 69.2162 15.6793H69.9562V17.0169H64.6445Z" fill="#F47200"/>
<path d="M80.6543 17.0169V15.6793H81.5752C81.7643 15.6793 81.9288 15.6215 82.0686 15.5142C82.2083 15.4068 82.3152 15.25 82.3975 15.0435C82.4797 14.8371 82.5208 14.5977 82.5208 14.317V2.93102C82.5208 2.60075 82.4715 2.3448 82.381 2.15489C82.2906 1.96499 82.159 1.82463 82.0028 1.7338C81.8466 1.64298 81.6574 1.59344 81.4437 1.59344H80.6625V0.255859H87.4789C89.0001 0.255859 90.3156 0.553099 91.4092 1.13932C92.5028 1.72555 93.3415 2.60901 93.9253 3.78146C94.5091 4.9539 94.7969 6.43184 94.7969 8.21528C94.7969 9.99872 94.5173 11.4436 93.9664 12.773C93.4155 14.1023 92.5933 15.1426 91.5079 15.894C90.4225 16.6453 89.0823 17.0169 87.4789 17.0169H80.6625H80.6543ZM86.9938 15.4729C87.8654 15.4729 88.5889 15.1757 89.1563 14.5812C89.7319 13.9867 90.1676 13.1445 90.4719 12.0546C90.7761 10.9648 90.9241 9.68497 90.9241 8.21528C90.9241 6.7456 90.7761 5.53187 90.4801 4.59061C90.1841 3.64109 89.7483 2.93928 89.1645 2.4769C88.5807 2.01453 87.8654 1.78334 87.0102 1.78334H86.1304V15.4729H86.9938Z" fill="#F47200"/>
<path d="M96.3594 17.0169V15.6793H97.0172C97.2145 15.6793 97.4118 15.6463 97.5927 15.5885C97.7736 15.5307 97.9216 15.3986 98.045 15.2004C98.1683 15.0023 98.2259 14.7133 98.2259 14.317V2.98056C98.2259 2.57598 98.1601 2.27874 98.0285 2.08884C97.897 1.89894 97.7407 1.77509 97.5598 1.70078C97.379 1.62647 97.1981 1.59344 97.0254 1.59344H96.3676V0.255859H103.266C104.697 0.255859 105.84 0.437506 106.703 0.792543C107.567 1.14758 108.183 1.66775 108.561 2.32828C108.94 2.98882 109.121 3.78971 109.121 4.71446C109.121 5.6392 108.989 6.31625 108.718 6.89422C108.446 7.47218 108.101 7.9263 107.673 8.25657C107.246 8.58683 106.769 8.83453 106.251 9.00792L108.635 13.6564C108.997 14.3582 109.31 14.8702 109.581 15.1922C109.852 15.5142 110.157 15.6711 110.502 15.6711H110.642V17.0086H109.819C109.03 17.0086 108.348 16.9508 107.764 16.8435C107.18 16.7362 106.687 16.5297 106.267 16.2242C105.856 15.9188 105.511 15.4812 105.248 14.8949L103.044 9.77579H101.86V14.3087C101.86 14.6968 101.91 14.994 102 15.1922C102.09 15.3903 102.23 15.5142 102.403 15.5802C102.576 15.6463 102.765 15.6711 102.962 15.6711H103.406V17.0086H96.3676L96.3594 17.0169ZM102.855 8.33088C103.71 8.33088 104.327 8.05015 104.697 7.4887C105.075 6.92724 105.256 6.07681 105.256 4.9539C105.256 4.18603 105.166 3.56678 104.985 3.09615C104.804 2.62552 104.532 2.27874 104.171 2.06407C103.809 1.84114 103.357 1.7338 102.806 1.7338H101.844V8.33088H102.847H102.855Z" fill="#F47200"/>
<path d="M110.74 17.0169V15.6793H110.921C111.16 15.6793 111.373 15.6298 111.562 15.5389C111.752 15.4481 111.924 15.283 112.097 15.0435C112.261 14.8124 112.418 14.4656 112.566 14.0115L116.858 0.255859H120.106L124.274 14.1518C124.398 14.5151 124.529 14.8041 124.685 15.0353C124.842 15.2665 125.014 15.4234 125.22 15.5307C125.417 15.6298 125.639 15.6876 125.886 15.6876H126.108V17.0251H119.045V15.6876H119.785C120.04 15.6876 120.254 15.6298 120.426 15.5224C120.599 15.4151 120.689 15.1922 120.689 14.8619C120.689 14.7215 120.681 14.5812 120.656 14.4491C120.632 14.317 120.607 14.1849 120.574 14.061C120.541 13.9372 120.508 13.8381 120.484 13.7803L119.826 11.551H115.131L114.613 13.384C114.588 13.5078 114.547 13.6564 114.506 13.8298C114.457 14.0032 114.424 14.1766 114.399 14.3582C114.375 14.5399 114.358 14.6968 114.358 14.8371C114.358 15.1013 114.424 15.3078 114.547 15.4564C114.671 15.605 114.893 15.6793 115.197 15.6793H116.077V17.0169H110.74ZM115.559 9.99872H119.407L118.239 5.58141C118.157 5.26766 118.083 4.9539 118.001 4.64015C117.918 4.3264 117.844 4.00439 117.77 3.66586C117.696 3.32734 117.631 2.98882 117.557 2.64204C117.491 2.9723 117.417 3.30257 117.335 3.62458C117.252 3.95485 117.17 4.27686 117.096 4.59061C117.014 4.90436 116.932 5.21811 116.833 5.53187L115.55 9.99047L115.559 9.99872Z" fill="#F47200"/>
<path d="M139.946 17.2566C138.384 17.2566 137.076 16.8933 136.024 16.1749C134.971 15.4566 134.19 14.4493 133.664 13.1613C133.146 11.8732 132.883 10.354 132.883 8.62009C132.883 6.88619 133.154 5.44127 133.689 4.14498C134.223 2.85694 135.021 1.84137 136.073 1.11478C137.126 0.388196 138.441 0.0249023 140.003 0.0249023C141.072 0.0249023 141.96 0.148752 142.659 0.388196C143.358 0.627639 143.893 0.966162 144.246 1.38725C144.6 1.80834 144.781 2.27897 144.781 2.79914C144.781 3.41013 144.55 3.9303 144.082 4.35139C143.613 4.77248 142.914 4.98716 141.977 4.98716C141.977 4.46699 141.911 3.95507 141.779 3.4349C141.648 2.91473 141.418 2.48539 141.105 2.14687C140.793 1.80834 140.357 1.6267 139.814 1.6267C139.041 1.6267 138.425 1.89917 137.981 2.45236C137.537 3.00556 137.216 3.7982 137.019 4.83854C136.821 5.87888 136.731 7.14215 136.731 8.62835C136.731 10.1145 136.854 11.4439 137.101 12.4182C137.348 13.4007 137.759 14.119 138.326 14.5814C138.893 15.0438 139.65 15.275 140.579 15.275C141.286 15.275 141.886 15.1511 142.371 14.8952C142.857 14.6392 143.276 14.342 143.613 13.9787C143.95 13.6154 144.238 13.2686 144.468 12.9218C144.575 13.0291 144.657 13.186 144.707 13.3924C144.764 13.5989 144.789 13.7888 144.789 13.9787C144.789 14.3254 144.715 14.6887 144.567 15.0685C144.419 15.4484 144.172 15.8116 143.819 16.1337C143.465 16.4639 142.972 16.7364 142.347 16.9428C141.722 17.1575 140.924 17.2566 139.962 17.2566H139.946Z" fill="#F47200"/>
<path d="M153.702 17.2564C152.14 17.2564 150.84 16.8931 149.796 16.1748C148.76 15.4564 147.987 14.4491 147.469 13.1446C146.951 11.8483 146.696 10.329 146.696 8.58689C146.696 6.84473 146.951 5.34202 147.469 4.05398C147.987 2.7742 148.76 1.77514 149.804 1.05681C150.849 0.346736 152.148 -0.00830078 153.718 -0.00830078C155.289 -0.00830078 156.481 0.346736 157.509 1.05681C158.537 1.76688 159.326 2.7742 159.869 4.06223C160.411 5.35027 160.683 6.8695 160.683 8.6034C160.683 10.3373 160.411 11.8565 159.869 13.1446C159.326 14.4326 158.537 15.4399 157.501 16.1582C156.465 16.8766 155.198 17.2399 153.702 17.2399V17.2564ZM153.702 15.6381C154.475 15.6381 155.091 15.3574 155.544 14.8042C155.996 14.251 156.325 13.4501 156.53 12.4015C156.728 11.3529 156.835 10.0896 156.835 8.61991C156.835 7.15023 156.736 5.88696 156.53 4.83836C156.325 3.78977 156.004 2.98887 155.544 2.44393C155.083 1.89899 154.483 1.61826 153.718 1.61826C152.567 1.61826 151.753 2.22926 151.268 3.45124C150.791 4.67323 150.544 6.39061 150.544 8.61991C150.544 10.8492 150.783 12.5501 151.268 13.7886C151.753 15.0271 152.559 15.6463 153.694 15.6463L153.702 15.6381Z" fill="#F47200"/>
<path d="M162.253 17.0169V15.6793H162.837C163.092 15.6793 163.314 15.6463 163.511 15.572C163.708 15.4977 163.856 15.3573 163.963 15.1509C164.07 14.9362 164.128 14.6225 164.128 14.2014V2.98056C164.128 2.57598 164.07 2.27874 163.963 2.08884C163.856 1.89894 163.717 1.77509 163.544 1.70078C163.371 1.62647 163.19 1.59344 163.001 1.59344H162.261V0.255859H167.038L174.077 11.4519V2.98056C174.077 2.61727 174.027 2.3448 173.929 2.14664C173.83 1.94848 173.699 1.80811 173.534 1.72555C173.37 1.64298 173.197 1.59344 172.991 1.59344H172.227V0.255859H177.538V1.59344H176.798C176.568 1.59344 176.371 1.64298 176.206 1.7338C176.042 1.82463 175.91 1.9815 175.812 2.18792C175.721 2.40259 175.672 2.69158 175.672 3.07138V17.0169H173.666L165.723 4.31814V14.2014C165.723 14.6225 165.764 14.9445 165.846 15.1509C165.928 15.3656 166.052 15.5059 166.216 15.572C166.381 15.638 166.586 15.6793 166.825 15.6793H167.565V17.0169H162.253Z" fill="#F47200"/>
<path d="M183.327 17.2565C182.324 17.2565 181.502 17.1574 180.852 16.951C180.203 16.7446 179.693 16.4804 179.331 16.1419C178.961 15.8033 178.706 15.4483 178.566 15.0602C178.427 14.6722 178.353 14.3171 178.353 13.9951C178.353 13.3511 178.468 12.864 178.698 12.5172C178.928 12.1704 179.224 11.931 179.594 11.7741C179.964 11.6255 180.359 11.5512 180.786 11.5512C180.786 12.5337 180.926 13.3429 181.206 13.9539C181.485 14.5731 181.847 15.0272 182.299 15.3162C182.743 15.6052 183.22 15.7538 183.714 15.7538C184.462 15.7538 185.037 15.5144 185.448 15.0272C185.86 14.5401 186.057 13.9951 186.057 13.3841C186.057 12.864 185.917 12.4264 185.646 12.0548C185.374 11.6833 184.98 11.3447 184.47 11.0227C183.96 10.7007 183.344 10.3705 182.604 10.0237C181.617 9.55305 180.844 9.04939 180.285 8.52097C179.734 7.99254 179.331 7.40632 179.093 6.77055C178.854 6.13479 178.731 5.45774 178.731 4.73941C178.731 3.76513 178.961 2.9312 179.421 2.22939C179.882 1.52757 180.507 0.982631 181.288 0.594568C182.069 0.206505 182.957 0.0166016 183.944 0.0166016C184.93 0.0166016 185.819 0.165222 186.485 0.454205C187.142 0.743188 187.636 1.10648 187.948 1.54408C188.261 1.98169 188.417 2.4358 188.417 2.90643C188.417 3.46789 188.219 3.94677 187.817 4.32658C187.414 4.70639 186.731 4.90455 185.769 4.90455C185.769 4.37612 185.687 3.85595 185.522 3.34404C185.358 2.83212 185.111 2.41103 184.782 2.06425C184.454 1.71747 184.042 1.54408 183.549 1.54408C182.998 1.54408 182.546 1.70096 182.184 2.02297C181.822 2.34498 181.642 2.84038 181.642 3.51743C181.642 3.88072 181.732 4.23576 181.913 4.58254C182.094 4.93757 182.431 5.30087 182.932 5.67242C183.434 6.05222 184.158 6.46506 185.111 6.91917C186.09 7.35678 186.863 7.83566 187.43 8.36409C187.997 8.89252 188.4 9.45397 188.631 10.065C188.861 10.676 188.984 11.3613 188.984 12.1291C188.984 13.1447 188.754 14.0364 188.302 14.8043C187.849 15.5722 187.192 16.1666 186.337 16.6042C185.481 17.0336 184.478 17.2483 183.327 17.2483V17.2565Z" fill="#F47200"/>
<path d="M192.635 17.0169V15.6793H193.235C193.49 15.6793 193.72 15.6463 193.918 15.572C194.115 15.4977 194.271 15.3573 194.386 15.1344C194.501 14.9114 194.559 14.5894 194.559 14.1518V1.78334H193.079C192.487 1.78334 192.084 1.91545 191.854 2.17966C191.624 2.44388 191.484 2.8402 191.435 3.35211L191.254 4.99519H189.79L189.889 0.255859H202.864L202.962 4.99519H201.499L201.359 3.35211C201.31 2.83194 201.162 2.44388 200.94 2.17966C200.709 1.91545 200.298 1.78334 199.698 1.78334H198.218V14.2014C198.218 14.6225 198.276 14.9445 198.399 15.1509C198.522 15.3656 198.678 15.5059 198.884 15.572C199.081 15.638 199.303 15.6793 199.542 15.6793H200.167V17.0169H192.643H192.635Z" fill="#F47200"/>
<path d="M203.57 17.0169V15.6793H204.228C204.425 15.6793 204.623 15.6463 204.804 15.5885C204.985 15.5307 205.133 15.3986 205.256 15.2004C205.379 15.0023 205.437 14.7133 205.437 14.317V2.98056C205.437 2.57598 205.371 2.27874 205.239 2.08884C205.108 1.89894 204.952 1.77509 204.771 1.70078C204.59 1.62647 204.409 1.59344 204.236 1.59344H203.579V0.255859H210.477C211.908 0.255859 213.051 0.437506 213.914 0.792543C214.777 1.14758 215.394 1.66775 215.772 2.32828C216.151 2.98882 216.332 3.78971 216.332 4.71446C216.332 5.6392 216.2 6.31625 215.929 6.89422C215.657 7.47218 215.312 7.9263 214.884 8.25657C214.457 8.58683 213.98 8.83453 213.462 9.00792L215.846 13.6564C216.208 14.3582 216.521 14.8702 216.792 15.1922C217.063 15.5142 217.368 15.6711 217.713 15.6711H217.853V17.0086H217.03C216.241 17.0086 215.559 16.9508 214.975 16.8435C214.391 16.7362 213.898 16.5297 213.478 16.2242C213.067 15.9188 212.722 15.4812 212.459 14.8949L210.255 9.77579H209.071V14.3087C209.071 14.6968 209.12 14.994 209.211 15.1922C209.301 15.3903 209.441 15.5142 209.614 15.5802C209.786 15.6463 209.976 15.6711 210.173 15.6711H210.617V17.0086H203.579L203.57 17.0169ZM210.066 8.33088C210.921 8.33088 211.538 8.05015 211.908 7.4887C212.286 6.92724 212.467 6.07681 212.467 4.9539C212.467 4.18603 212.377 3.56678 212.196 3.09615C212.015 2.62552 211.743 2.27874 211.382 2.06407C211.02 1.84114 210.568 1.7338 210.017 1.7338H209.055V8.33088H210.058H210.066Z" fill="#F47200"/>
<path d="M225.648 17.2563C224.538 17.2563 223.56 17.0747 222.721 16.7196C221.883 16.3646 221.217 15.7866 220.748 14.994C220.271 14.2014 220.033 13.1775 220.033 11.906V2.98056C220.033 2.57598 219.975 2.27874 219.852 2.08884C219.728 1.89894 219.564 1.77509 219.358 1.70078C219.153 1.62647 218.931 1.59344 218.684 1.59344H218.166V0.255859H225.525V1.59344H225.007C224.769 1.59344 224.538 1.62647 224.333 1.70078C224.127 1.76683 223.963 1.90719 223.84 2.11361C223.716 2.32003 223.659 2.64204 223.659 3.07964V12.0959C223.659 13.3922 223.914 14.2839 224.423 14.7711C224.933 15.2582 225.624 15.4977 226.512 15.4977C227.03 15.4977 227.498 15.3738 227.91 15.1344C228.321 14.8949 228.641 14.5069 228.88 13.9867C229.118 13.4665 229.242 12.7812 229.242 11.9308V2.98056C229.242 2.57598 229.184 2.27874 229.061 2.08884C228.937 1.89894 228.781 1.77509 228.592 1.70078C228.395 1.62647 228.173 1.59344 227.918 1.59344H227.4V0.255859H232.736V1.59344H232.218C231.963 1.59344 231.733 1.62647 231.527 1.70078C231.322 1.76683 231.157 1.90719 231.034 2.11361C230.911 2.32003 230.853 2.64204 230.853 3.07964V11.9803C230.853 13.0289 230.672 13.9454 230.319 14.738C229.965 15.5307 229.406 16.1499 228.641 16.5958C227.877 17.0417 226.882 17.2646 225.657 17.2646L225.648 17.2563Z" fill="#F47200"/>
<path d="M241.222 17.2566C239.66 17.2566 238.353 16.8933 237.3 16.1749C236.248 15.4566 235.467 14.4493 234.94 13.1613C234.422 11.8732 234.159 10.354 234.159 8.62009C234.159 6.88619 234.431 5.44127 234.965 4.14498C235.499 2.85694 236.297 1.84137 237.349 1.11478C238.402 0.388196 239.718 0.0249023 241.28 0.0249023C242.349 0.0249023 243.237 0.148752 243.936 0.388196C244.635 0.627639 245.169 0.966162 245.523 1.38725C245.876 1.80834 246.057 2.27897 246.057 2.79914C246.057 3.41013 245.827 3.9303 245.358 4.35139C244.889 4.77248 244.191 4.98716 243.253 4.98716C243.253 4.46699 243.187 3.95507 243.056 3.4349C242.924 2.91473 242.694 2.48539 242.382 2.14687C242.069 1.80834 241.633 1.6267 241.091 1.6267C240.318 1.6267 239.701 1.89917 239.257 2.45236C238.813 3.00556 238.492 3.7982 238.295 4.83854C238.098 5.87888 238.007 7.14215 238.007 8.62835C238.007 10.1145 238.131 11.4439 238.377 12.4182C238.624 13.4007 239.035 14.119 239.602 14.5814C240.17 15.0438 240.926 15.275 241.855 15.275C242.563 15.275 243.163 15.1511 243.648 14.8952C244.133 14.6392 244.552 14.342 244.889 13.9787C245.227 13.6154 245.514 13.2686 245.745 12.9218C245.851 13.0291 245.934 13.186 245.983 13.3924C246.041 13.5989 246.065 13.7888 246.065 13.9787C246.065 14.3254 245.991 14.6887 245.843 15.0685C245.695 15.4484 245.449 15.8116 245.095 16.1337C244.741 16.4639 244.248 16.7364 243.623 16.9428C242.998 17.1575 242.201 17.2566 241.239 17.2566H241.222Z" fill="#F47200"/>
<path d="M249.864 17.0169V15.6793H250.465C250.72 15.6793 250.95 15.6463 251.147 15.572C251.345 15.4977 251.501 15.3573 251.616 15.1344C251.731 14.9114 251.789 14.5894 251.789 14.1518V1.78334H250.309C249.716 1.78334 249.314 1.91545 249.083 2.17966C248.853 2.44388 248.713 2.8402 248.664 3.35211L248.483 4.99519H247.02L247.118 0.255859H260.093L260.192 4.99519H258.728L258.588 3.35211C258.539 2.83194 258.391 2.44388 258.169 2.17966C257.939 1.91545 257.528 1.78334 256.928 1.78334H255.448V14.2014C255.448 14.6225 255.505 14.9445 255.628 15.1509C255.752 15.3656 255.908 15.5059 256.114 15.572C256.311 15.638 256.533 15.6793 256.771 15.6793H257.396V17.0169H249.873H249.864Z" fill="#F47200"/>
<path d="M260.792 17.0169V15.6793H261.713C261.861 15.6793 262.009 15.638 262.157 15.5472C262.305 15.4646 262.428 15.3243 262.519 15.1509C262.609 14.9692 262.658 14.7381 262.658 14.4573V2.93102C262.658 2.60075 262.609 2.33654 262.519 2.14664C262.428 1.94848 262.305 1.80811 262.157 1.72555C262.009 1.64298 261.861 1.59344 261.713 1.59344H260.792V0.255859H268.151V1.59344H267.205C267.016 1.59344 266.852 1.64298 266.712 1.7338C266.572 1.82463 266.465 1.96499 266.391 2.15489C266.317 2.3448 266.285 2.60901 266.285 2.95579V14.416C266.285 14.6803 266.326 14.9114 266.416 15.1096C266.507 15.3078 266.613 15.4481 266.761 15.5472C266.909 15.6463 267.049 15.6876 267.214 15.6876H268.159V17.0251H260.8L260.792 17.0169Z" fill="#F47200"/>
<path d="M276.717 17.2564C275.155 17.2564 273.856 16.8931 272.812 16.1748C271.776 15.4564 271.003 14.4491 270.485 13.1446C269.967 11.8483 269.712 10.329 269.712 8.58689C269.712 6.84473 269.967 5.34202 270.485 4.05398C271.003 2.7742 271.776 1.77514 272.82 1.05681C273.864 0.346736 275.163 -0.00830078 276.734 -0.00830078C278.304 -0.00830078 279.497 0.346736 280.524 1.05681C281.552 1.76688 282.342 2.7742 282.884 4.06223C283.427 5.35027 283.698 6.8695 283.698 8.6034C283.698 10.3373 283.427 11.8565 282.884 13.1446C282.342 14.4326 281.552 15.4399 280.516 16.1582C279.48 16.8766 278.214 17.2399 276.717 17.2399V17.2564ZM276.717 15.6381C277.49 15.6381 278.107 15.3574 278.559 14.8042C279.011 14.251 279.34 13.4501 279.546 12.4015C279.743 11.3529 279.85 10.0896 279.85 8.61991C279.85 7.15023 279.752 5.88696 279.546 4.83836C279.34 3.78977 279.02 2.98887 278.559 2.44393C278.099 1.89899 277.499 1.61826 276.734 1.61826C275.583 1.61826 274.769 2.22926 274.284 3.45124C273.807 4.67323 273.56 6.39061 273.56 8.61991C273.56 10.8492 273.798 12.5501 274.284 13.7886C274.769 15.0271 275.575 15.6463 276.709 15.6463L276.717 15.6381Z" fill="#F47200"/>
<path d="M285.261 17.0169V15.6793H285.845C286.099 15.6793 286.321 15.6463 286.519 15.572C286.716 15.4977 286.864 15.3573 286.971 15.1509C287.078 14.9362 287.135 14.6225 287.135 14.2014V2.98056C287.135 2.57598 287.078 2.27874 286.971 2.08884C286.864 1.89894 286.724 1.77509 286.552 1.70078C286.379 1.62647 286.198 1.59344 286.009 1.59344H285.269V0.255859H290.046L297.085 11.4519V2.98056C297.085 2.61727 297.035 2.3448 296.937 2.14664C296.838 1.94848 296.706 1.80811 296.542 1.72555C296.377 1.64298 296.205 1.59344 295.999 1.59344H295.235V0.255859H300.546V1.59344H299.806C299.576 1.59344 299.379 1.64298 299.214 1.7338C299.05 1.82463 298.918 1.9815 298.82 2.18792C298.729 2.40259 298.68 2.69158 298.68 3.07138V17.0169H296.673L288.731 4.31814V14.2014C288.731 14.6225 288.772 14.9445 288.854 15.1509C288.936 15.3656 289.06 15.5059 289.224 15.572C289.388 15.638 289.594 15.6793 289.832 15.6793H290.572V17.0169H285.261Z" fill="#F47200"/>
<path d="M306.343 17.2565C305.34 17.2565 304.517 17.1574 303.868 16.951C303.218 16.7446 302.708 16.4804 302.347 16.1419C301.977 15.8033 301.722 15.4483 301.582 15.0602C301.442 14.6722 301.368 14.3171 301.368 13.9951C301.368 13.3511 301.483 12.864 301.714 12.5172C301.944 12.1704 302.24 11.931 302.61 11.7741C302.98 11.6255 303.374 11.5512 303.802 11.5512C303.802 12.5337 303.942 13.3429 304.221 13.9539C304.501 14.5731 304.863 15.0272 305.315 15.3162C305.759 15.6052 306.236 15.7538 306.729 15.7538C307.477 15.7538 308.053 15.5144 308.464 15.0272C308.875 14.5401 309.073 13.9951 309.073 13.3841C309.073 12.864 308.933 12.4264 308.661 12.0548C308.39 11.6833 307.995 11.3447 307.486 11.0227C306.976 10.7007 306.359 10.3705 305.619 10.0237C304.632 9.55305 303.86 9.04939 303.3 8.52097C302.75 7.99254 302.347 7.40632 302.108 6.77055C301.87 6.13479 301.746 5.45774 301.746 4.73941C301.746 3.76513 301.977 2.9312 302.437 2.22939C302.898 1.52757 303.522 0.982631 304.304 0.594568C305.085 0.206505 305.973 0.0166016 306.959 0.0166016C307.946 0.0166016 308.834 0.165222 309.5 0.454205C310.158 0.743188 310.651 1.10648 310.964 1.54408C311.276 1.98169 311.432 2.4358 311.432 2.90643C311.432 3.46789 311.235 3.94677 310.832 4.32658C310.429 4.70639 309.747 4.90455 308.785 4.90455C308.785 4.37612 308.703 3.85595 308.538 3.34404C308.374 2.83212 308.127 2.41103 307.798 2.06425C307.469 1.71747 307.058 1.54408 306.565 1.54408C306.014 1.54408 305.562 1.70096 305.2 2.02297C304.838 2.34498 304.657 2.84038 304.657 3.51743C304.657 3.88072 304.748 4.23576 304.928 4.58254C305.109 4.93757 305.446 5.30087 305.948 5.67242C306.45 6.05222 307.173 6.46506 308.127 6.91917C309.105 7.35678 309.878 7.83566 310.446 8.36409C311.013 8.89252 311.416 9.45397 311.646 10.065C311.876 10.676 312 11.3613 312 12.1291C312 13.1447 311.77 14.0364 311.317 14.8043C310.865 15.5722 310.207 16.1666 309.352 16.6042C308.497 17.0336 307.494 17.2483 306.343 17.2483V17.2565Z" fill="#F47200"/>
<path d="M24.0358 31.5821C24.0358 31.9124 23.9536 32.2592 23.7974 32.639C23.6411 33.0188 23.3862 33.3903 23.0409 33.7619C22.6956 34.1334 22.2598 34.4224 21.7253 34.6536C21.1909 34.8848 20.566 35.0004 19.8588 35.0004C19.3161 35.0004 18.831 34.9509 18.387 34.8435C17.943 34.7444 17.5483 34.5793 17.1865 34.3646C16.8248 34.15 16.4959 33.861 16.1916 33.5059C15.9203 33.1839 15.6901 32.8206 15.5009 32.4243C15.3118 32.028 15.1638 31.5987 15.0734 31.1445C14.9747 30.6904 14.9336 30.2115 14.9336 29.6996C14.9336 28.874 15.0569 28.1308 15.2954 27.4786C15.5338 26.8263 15.8792 26.2648 16.3232 25.8025C16.7672 25.3401 17.2934 24.9851 17.8937 24.7456C18.4939 24.5062 19.1353 24.3823 19.8095 24.3823C20.64 24.3823 21.3718 24.5475 22.0213 24.8777C22.6709 25.208 23.1642 25.6208 23.5014 26.108C23.8385 26.5951 24.0194 27.0575 24.0194 27.4868C24.0194 27.7263 23.9372 27.9327 23.7645 28.1143C23.6 28.296 23.3945 28.3868 23.156 28.3868C22.8929 28.3868 22.6956 28.3208 22.564 28.1969C22.4324 28.0731 22.2844 27.8501 22.12 27.5446C21.8487 27.0327 21.5362 26.6529 21.1662 26.4052C20.7962 26.1575 20.3522 26.0254 19.8177 26.0254C18.9708 26.0254 18.2883 26.3474 17.7868 26.9997C17.2852 27.652 17.0303 28.5685 17.0303 29.7657C17.0303 30.5666 17.1454 31.2271 17.3674 31.7555C17.5894 32.284 17.9101 32.6803 18.313 32.9445C18.7159 33.2087 19.201 33.3325 19.7519 33.3325C20.344 33.3325 20.8455 33.1839 21.2566 32.8867C21.6678 32.5895 21.9802 32.1518 22.1858 31.5821C22.2762 31.3097 22.3831 31.095 22.5147 30.9216C22.6462 30.7482 22.8518 30.6656 23.1396 30.6656C23.3862 30.6656 23.6 30.7482 23.7727 30.9216C23.9454 31.095 24.0358 31.3097 24.0358 31.5656V31.5821Z" fill="#A8A8A8"/>
<path d="M25.9756 33.7284V25.6451C25.9756 25.2241 26.0743 24.9103 26.2634 24.7039C26.4525 24.4975 26.6992 24.3901 27.0034 24.3901C27.3076 24.3901 27.5707 24.4975 27.7599 24.7039C27.949 24.9103 28.0476 25.2241 28.0476 25.6534V33.7367C28.0476 34.1578 27.949 34.4798 27.7599 34.6862C27.5707 34.8926 27.3158 34.9999 27.0034 34.9999C26.6909 34.9999 26.4607 34.8926 26.2716 34.6779C26.0825 34.4633 25.9838 34.1495 25.9838 33.7284H25.9756Z" fill="#A8A8A8"/>
<path d="M31.8691 25.7524L34.1796 32.6302L36.4983 25.7029C36.6216 25.3396 36.7121 25.0836 36.7696 24.9432C36.8272 24.8029 36.9259 24.6708 37.0656 24.5552C37.2054 24.4396 37.3945 24.3818 37.633 24.3818C37.8057 24.3818 37.9701 24.4231 38.1263 24.5139C38.2826 24.6047 38.3977 24.7203 38.4799 24.8689C38.5621 25.0176 38.6114 25.1662 38.6114 25.3148C38.6114 25.4139 38.595 25.5295 38.5703 25.6451C38.5457 25.7607 38.5046 25.8845 38.4634 25.9918C38.4223 26.1074 38.3812 26.223 38.3401 26.3469L35.8652 33.0513C35.7747 33.3072 35.6925 33.5549 35.602 33.7861C35.5116 34.0173 35.4129 34.2237 35.2978 34.3971C35.1827 34.5705 35.0265 34.7191 34.8374 34.8265C34.6482 34.9421 34.4098 34.9916 34.1302 34.9916C33.8507 34.9916 33.6122 34.9338 33.4231 34.8265C33.234 34.7191 33.0778 34.5705 32.9544 34.3889C32.8393 34.2072 32.7324 34.0091 32.642 33.7779C32.5515 33.5467 32.4693 33.3072 32.3789 33.0513L29.945 26.4047C29.9039 26.2808 29.8628 26.1652 29.8135 26.0496C29.7641 25.934 29.7312 25.8102 29.6983 25.6698C29.6654 25.5377 29.6572 25.4221 29.6572 25.3231C29.6572 25.0836 29.7559 24.8689 29.945 24.6708C30.1341 24.4726 30.3726 24.3735 30.6604 24.3735C31.0139 24.3735 31.2606 24.4809 31.4086 24.6955C31.5566 24.9102 31.7046 25.257 31.8608 25.7359L31.8691 25.7524Z" fill="#A8A8A8"/>
<path d="M40.2559 33.7284V25.6451C40.2559 25.2241 40.3545 24.9103 40.5436 24.7039C40.7328 24.4975 40.9794 24.3901 41.2837 24.3901C41.5879 24.3901 41.851 24.4975 42.0401 24.7039C42.2292 24.9103 42.3279 25.2241 42.3279 25.6534V33.7367C42.3279 34.1578 42.2292 34.4798 42.0401 34.6862C41.851 34.8926 41.5961 34.9999 41.2837 34.9999C40.9712 34.9999 40.741 34.8926 40.5519 34.6779C40.3628 34.4633 40.2641 34.1495 40.2641 33.7284H40.2559Z" fill="#A8A8A8"/>
<path d="M46.6722 25.6535V33.1175H50.8657C51.2028 33.1175 51.4577 33.2 51.6386 33.3652C51.8195 33.5303 51.9099 33.7367 51.9099 33.9844C51.9099 34.2321 51.8195 34.4385 51.6468 34.5954C51.4741 34.7523 51.211 34.8266 50.8739 34.8266H45.8747C45.4224 34.8266 45.1017 34.7275 44.9044 34.5294C44.7071 34.3312 44.6084 34.0009 44.6084 33.5551V25.6535C44.6084 25.2324 44.6988 24.9186 44.888 24.7122C45.0771 24.5058 45.3238 24.3984 45.628 24.3984C45.9322 24.3984 46.1871 24.5058 46.3844 24.7122C46.5818 24.9186 46.6722 25.2324 46.6722 25.6617V25.6535Z" fill="#A8A8A8"/>
<path d="M63.3616 33.6624L62.8764 32.3743H58.7241L58.239 33.6871C58.0499 34.1991 57.8854 34.5458 57.7539 34.7275C57.6223 34.9091 57.4003 34.9999 57.0961 34.9999C56.833 34.9999 56.6027 34.9009 56.4054 34.711C56.208 34.5211 56.1094 34.3064 56.1094 34.0587C56.1094 33.9183 56.134 33.778 56.1752 33.6211C56.2245 33.4725 56.2985 33.2661 56.4054 33.0018L59.0201 26.3387C59.0941 26.1488 59.1846 25.9176 59.2915 25.6534C59.3983 25.3892 59.5052 25.1663 59.6286 24.9846C59.7437 24.8112 59.8999 24.6626 60.0973 24.5553C60.2946 24.4479 60.5248 24.3901 60.8126 24.3901C61.1004 24.3901 61.3388 24.4479 61.5362 24.5553C61.7335 24.6626 61.8815 24.803 62.0049 24.9764C62.12 25.1497 62.2186 25.3314 62.3009 25.5296C62.3831 25.7277 62.4818 25.9919 62.6133 26.3222L65.2856 32.944C65.4912 33.4477 65.5981 33.811 65.5981 34.0422C65.5981 34.2734 65.4994 34.4963 65.302 34.6945C65.1047 34.8926 64.8663 34.9917 64.5867 34.9917C64.4223 34.9917 64.2825 34.9587 64.1674 34.9009C64.0522 34.8431 63.9536 34.7605 63.8713 34.6614C63.7891 34.5623 63.7069 34.4055 63.6165 34.1991C63.526 33.9926 63.4438 33.811 63.3862 33.6459L63.3616 33.6624ZM59.2668 30.8138H62.3173L60.7797 26.5782L59.2668 30.8138Z" fill="#A8A8A8"/>
<path d="M69.785 25.6369L73.7647 31.6808V25.5791C73.7647 25.1828 73.8469 24.8855 74.0196 24.6874C74.1922 24.4892 74.4142 24.3901 74.702 24.3901C74.9898 24.3901 75.2365 24.4892 75.4091 24.6874C75.5818 24.8855 75.664 25.1828 75.664 25.5791V33.6459C75.664 34.5458 75.294 34.9999 74.5458 34.9999C74.3567 34.9999 74.1922 34.9752 74.0442 34.9174C73.8962 34.8678 73.7564 34.777 73.6249 34.6614C73.4933 34.5458 73.3782 34.4055 73.2631 34.2486C73.148 34.0917 73.0411 33.9348 72.926 33.7697L69.045 27.7919V33.8027C69.045 34.1908 68.9545 34.488 68.7736 34.6945C68.5928 34.8926 68.3625 34.9917 68.0747 34.9917C67.787 34.9917 67.5485 34.8926 67.3676 34.6862C67.1867 34.4798 67.1045 34.1908 67.1045 33.8027V25.8928C67.1045 25.5543 67.1374 25.2901 67.2196 25.1002C67.3101 24.8938 67.4581 24.7204 67.6554 24.5883C67.861 24.4562 68.083 24.3901 68.3214 24.3901C68.5105 24.3901 68.6668 24.4232 68.7983 24.481C68.9299 24.5388 69.045 24.6213 69.1437 24.7287C69.2423 24.8277 69.3492 24.9681 69.4479 25.125C69.5466 25.2819 69.6617 25.4552 69.7686 25.6369H69.785Z" fill="#A8A8A8"/>
<path d="M79.2149 24.5635H81.9119C82.6108 24.5635 83.211 24.6295 83.7126 24.7616C84.2141 24.8937 84.6664 25.1414 85.0775 25.4965C86.1382 26.413 86.6726 27.8001 86.6726 29.6661C86.6726 30.2853 86.6151 30.8468 86.5082 31.3505C86.4013 31.8624 86.2369 32.3165 86.0149 32.7293C85.7928 33.1339 85.5051 33.5054 85.1597 33.8275C84.8884 34.0752 84.5842 34.2733 84.2635 34.4219C83.9346 34.5706 83.5892 34.6779 83.211 34.7357C82.8328 34.7935 82.4134 34.8265 81.9448 34.8265H79.2478C78.8696 34.8265 78.59 34.7687 78.4009 34.6531C78.2118 34.5375 78.0884 34.3806 78.0309 34.1742C77.9733 33.9678 77.9404 33.6953 77.9404 33.3651V25.8433C77.9404 25.3974 78.0391 25.0671 78.2364 24.869C78.4338 24.6708 78.7627 24.5717 79.2067 24.5717L79.2149 24.5635ZM80.0125 26.2066V33.1669H81.583C81.9283 33.1669 82.1996 33.1587 82.3888 33.1422C82.5779 33.1256 82.7834 33.0761 82.9972 33.0018C83.2028 32.9275 83.3837 32.8201 83.5399 32.688C84.2306 32.1018 84.5759 31.0862 84.5759 29.6496C84.5759 28.634 84.4279 27.8827 84.1237 27.379C83.8195 26.8753 83.4412 26.5533 82.9972 26.413C82.5532 26.2726 82.0105 26.2066 81.3774 26.2066H80.0125Z" fill="#A8A8A8"/>
<path d="M98.7908 26.1653H94.1287V28.6836H98.4208C98.7332 28.6836 98.9717 28.7579 99.1279 28.8982C99.2842 29.0386 99.3582 29.2285 99.3582 29.4597C99.3582 29.6909 99.2842 29.8808 99.1279 30.0294C98.9717 30.178 98.7415 30.2523 98.4208 30.2523H94.1287V33.1669H98.947C99.2759 33.1669 99.5144 33.2412 99.6788 33.3981C99.8433 33.5467 99.9255 33.7531 99.9255 34.0008C99.9255 34.2485 99.8433 34.4384 99.6788 34.5953C99.5144 34.7522 99.2677 34.8265 98.947 34.8265H93.3229C92.8707 34.8265 92.55 34.7274 92.3526 34.5293C92.1553 34.3311 92.0566 34.0008 92.0566 33.555V25.8433C92.0566 25.546 92.0978 25.2983 92.1882 25.1084C92.2786 24.9185 92.4184 24.7781 92.5993 24.6956C92.7884 24.613 93.0269 24.5635 93.3229 24.5635H98.7826C99.1115 24.5635 99.3582 24.6378 99.5144 24.7864C99.6706 24.935 99.7528 25.1249 99.7528 25.3644C99.7528 25.6038 99.6706 25.802 99.5144 25.9506C99.3499 26.0992 99.1115 26.1735 98.7826 26.1735L98.7908 26.1653Z" fill="#A8A8A8"/>
<path d="M103.604 25.6535V33.1175H107.797C108.134 33.1175 108.389 33.2 108.57 33.3652C108.751 33.5303 108.842 33.7367 108.842 33.9844C108.842 34.2321 108.751 34.4385 108.578 34.5954C108.406 34.7523 108.143 34.8266 107.806 34.8266H102.806C102.354 34.8266 102.033 34.7275 101.836 34.5294C101.639 34.3312 101.54 34.0009 101.54 33.5551V25.6535C101.54 25.2324 101.63 24.9186 101.82 24.7122C102.009 24.5058 102.255 24.3984 102.56 24.3984C102.864 24.3984 103.119 24.5058 103.316 24.7122C103.513 24.9186 103.604 25.2324 103.604 25.6617V25.6535Z" fill="#A8A8A8"/>
<path d="M116.932 26.1653H112.27V28.6836H116.562C116.875 28.6836 117.113 28.7579 117.27 28.8982C117.426 29.0386 117.5 29.2285 117.5 29.4597C117.5 29.6909 117.426 29.8808 117.27 30.0294C117.113 30.178 116.883 30.2523 116.562 30.2523H112.27V33.1669H117.089C117.418 33.1669 117.656 33.2412 117.82 33.3981C117.985 33.5467 118.067 33.7531 118.067 34.0008C118.067 34.2485 117.985 34.4384 117.82 34.5953C117.656 34.7522 117.409 34.8265 117.089 34.8265H111.464C111.012 34.8265 110.692 34.7274 110.494 34.5293C110.297 34.3311 110.198 34.0008 110.198 33.555V25.8433C110.198 25.546 110.239 25.2983 110.33 25.1084C110.42 24.9185 110.56 24.7781 110.741 24.6956C110.93 24.613 111.168 24.5635 111.464 24.5635H116.924C117.253 24.5635 117.5 24.6378 117.656 24.7864C117.812 24.935 117.894 25.1249 117.894 25.3644C117.894 25.6038 117.812 25.802 117.656 25.9506C117.492 26.0992 117.253 26.1735 116.924 26.1735L116.932 26.1653Z" fill="#A8A8A8"/>
<path d="M128.419 31.5816C128.419 31.9119 128.336 32.2587 128.18 32.6385C128.024 33.0183 127.769 33.3899 127.424 33.7614C127.078 34.133 126.643 34.4219 126.108 34.6531C125.574 34.8843 124.949 34.9999 124.242 34.9999C123.699 34.9999 123.214 34.9504 122.77 34.843C122.326 34.744 121.931 34.5788 121.569 34.3641C121.208 34.1495 120.879 33.8605 120.574 33.5055C120.303 33.1834 120.073 32.8201 119.884 32.4238C119.695 32.0275 119.547 31.5982 119.456 31.144C119.358 30.6899 119.316 30.211 119.316 29.6991C119.316 28.8735 119.44 28.1304 119.678 27.4781C119.917 26.8258 120.262 26.2644 120.706 25.802C121.15 25.3396 121.676 24.9846 122.276 24.7451C122.877 24.5057 123.518 24.3818 124.192 24.3818C125.023 24.3818 125.755 24.547 126.404 24.8772C127.054 25.2075 127.547 25.6203 127.884 26.1075C128.221 26.5946 128.402 27.057 128.402 27.4863C128.402 27.7258 128.32 27.9322 128.156 28.1138C127.991 28.2955 127.786 28.3863 127.547 28.3863C127.284 28.3863 127.087 28.3203 126.955 28.1964C126.823 28.0726 126.675 27.8496 126.511 27.5441C126.24 27.0322 125.927 26.6524 125.557 26.4047C125.195 26.1488 124.743 26.0249 124.209 26.0249C123.362 26.0249 122.679 26.3469 122.178 26.9992C121.676 27.6515 121.421 28.568 121.421 29.7652C121.421 30.5661 121.536 31.2266 121.758 31.755C121.98 32.2835 122.301 32.6798 122.704 32.944C123.107 33.2082 123.592 33.3321 124.143 33.3321C124.735 33.3321 125.237 33.1834 125.648 32.8862C126.059 32.589 126.371 32.1514 126.577 31.5816C126.667 31.3092 126.774 31.0945 126.906 30.9211C127.037 30.7477 127.243 30.6652 127.531 30.6652C127.777 30.6652 127.991 30.7477 128.164 30.9211C128.336 31.0945 128.427 31.3092 128.427 31.5651L128.419 31.5816Z" fill="#A8A8A8"/>
<path d="M136.914 26.281H134.652V33.7285C134.652 34.1578 134.554 34.4798 134.365 34.6862C134.176 34.8927 133.929 35 133.625 35C133.32 35 133.066 34.8927 132.876 34.6862C132.687 34.4798 132.589 34.1578 132.589 33.7367V26.2892H130.327C129.974 26.2892 129.711 26.2149 129.538 26.058C129.365 25.9011 129.283 25.6947 129.283 25.4388C129.283 25.1828 129.374 24.9599 129.555 24.8113C129.735 24.6626 129.99 24.5801 130.336 24.5801H136.914C137.267 24.5801 137.539 24.6626 137.711 24.8195C137.884 24.9764 137.974 25.1828 137.974 25.4388C137.974 25.6947 137.884 25.9011 137.711 26.058C137.539 26.2149 137.267 26.2892 136.914 26.2892V26.281Z" fill="#A8A8A8"/>
<path d="M141.976 30.434H141.253V33.7284C141.253 34.166 141.154 34.4797 140.965 34.6861C140.776 34.8926 140.529 34.9916 140.217 34.9916C139.888 34.9916 139.633 34.8843 139.452 34.6696C139.271 34.455 139.181 34.1412 139.181 33.7284V25.835C139.181 25.3891 139.279 25.0589 139.477 24.8607C139.674 24.6626 140.003 24.5635 140.447 24.5635H143.81C144.27 24.5635 144.673 24.58 145.002 24.6213C145.331 24.6626 145.627 24.7451 145.89 24.8607C146.211 24.9928 146.49 25.191 146.737 25.4387C146.984 25.6864 147.173 25.9836 147.296 26.3139C147.428 26.6442 147.485 26.9992 147.485 27.3707C147.485 28.1386 147.272 28.7496 146.844 29.2037C146.416 29.6578 145.759 29.9881 144.887 30.178C145.257 30.3762 145.602 30.6651 145.94 31.045C146.277 31.4248 146.573 31.8376 146.836 32.2669C147.099 32.6963 147.304 33.0844 147.452 33.4394C147.6 33.7862 147.674 34.0256 147.674 34.1577C147.674 34.2898 147.633 34.4302 147.543 34.5623C147.461 34.6944 147.337 34.8017 147.189 34.8761C147.041 34.9504 146.869 34.9916 146.671 34.9916C146.441 34.9916 146.244 34.9338 146.087 34.8265C145.931 34.7192 145.791 34.5788 145.676 34.4137C145.561 34.2485 145.405 34.0008 145.216 33.6706L144.385 32.2835C144.089 31.7715 143.826 31.3917 143.588 31.1193C143.349 30.8551 143.119 30.6734 142.873 30.5743C142.626 30.4752 142.33 30.4257 141.96 30.4257L141.976 30.434ZM143.16 26.124H141.253V28.9478H143.103C143.596 28.9478 144.015 28.9065 144.361 28.8157C144.706 28.7248 144.961 28.5845 145.134 28.3781C145.315 28.1716 145.405 27.8827 145.405 27.5194C145.405 27.2386 145.331 26.9827 145.191 26.768C145.051 26.5533 144.846 26.3882 144.591 26.2809C144.353 26.1818 143.876 26.124 143.16 26.124Z" fill="#A8A8A8"/>
<path d="M149.542 33.7284V25.6451C149.542 25.2241 149.641 24.9103 149.83 24.7039C150.019 24.4975 150.266 24.3901 150.57 24.3901C150.874 24.3901 151.129 24.4975 151.326 24.7039C151.524 24.9103 151.614 25.2241 151.614 25.6534V33.7367C151.614 34.1578 151.515 34.4798 151.326 34.6862C151.137 34.8926 150.882 34.9999 150.57 34.9999C150.257 34.9999 150.027 34.8926 149.838 34.6779C149.641 34.4633 149.55 34.1495 149.55 33.7284H149.542Z" fill="#A8A8A8"/>
<path d="M162.624 31.5816C162.624 31.9119 162.541 32.2587 162.385 32.6385C162.229 33.0183 161.974 33.3899 161.629 33.7614C161.283 34.133 160.848 34.4219 160.313 34.6531C159.779 34.8843 159.154 34.9999 158.447 34.9999C157.904 34.9999 157.419 34.9504 156.975 34.843C156.531 34.744 156.136 34.5788 155.774 34.3641C155.413 34.1495 155.084 33.8605 154.78 33.5055C154.508 33.1834 154.278 32.8201 154.089 32.4238C153.9 32.0275 153.752 31.5982 153.661 31.144C153.563 30.6899 153.521 30.211 153.521 29.6991C153.521 28.8735 153.645 28.1304 153.883 27.4781C154.122 26.8258 154.467 26.2644 154.911 25.802C155.355 25.3396 155.881 24.9846 156.482 24.7451C157.082 24.5057 157.723 24.3818 158.397 24.3818C159.228 24.3818 159.96 24.547 160.609 24.8772C161.259 25.2075 161.752 25.6203 162.089 26.1075C162.426 26.5946 162.607 27.057 162.607 27.4863C162.607 27.7258 162.525 27.9322 162.361 28.1138C162.196 28.2955 161.991 28.3863 161.752 28.3863C161.489 28.3863 161.292 28.3203 161.16 28.1964C161.029 28.0726 160.881 27.8496 160.716 27.5441C160.445 27.0322 160.132 26.6524 159.762 26.4047C159.401 26.1488 158.948 26.0249 158.414 26.0249C157.567 26.0249 156.884 26.3469 156.383 26.9992C155.881 27.6515 155.626 28.568 155.626 29.7652C155.626 30.5661 155.742 31.2266 155.964 31.755C156.186 32.2835 156.506 32.6798 156.909 32.944C157.312 33.2082 157.797 33.3321 158.348 33.3321C158.94 33.3321 159.442 33.1834 159.853 32.8862C160.264 32.589 160.576 32.1514 160.782 31.5816C160.872 31.3092 160.979 31.0945 161.111 30.9211C161.242 30.7477 161.448 30.6652 161.736 30.6652C161.982 30.6652 162.196 30.7477 162.369 30.9211C162.541 31.0945 162.632 31.3092 162.632 31.5651L162.624 31.5816Z" fill="#A8A8A8"/>
<path d="M171.02 33.6624L170.535 32.3743H166.383L165.898 33.6871C165.708 34.1991 165.544 34.5458 165.412 34.7275C165.281 34.9091 165.059 34.9999 164.746 34.9999C164.483 34.9999 164.253 34.9009 164.056 34.711C163.858 34.5211 163.76 34.3064 163.76 34.0587C163.76 33.9183 163.784 33.778 163.826 33.6211C163.875 33.4725 163.949 33.2661 164.056 33.0018L166.67 26.3387C166.745 26.1488 166.835 25.9176 166.942 25.6534C167.049 25.3892 167.156 25.1663 167.279 24.9846C167.394 24.8112 167.55 24.6626 167.748 24.5553C167.945 24.4479 168.175 24.3901 168.463 24.3901C168.751 24.3901 168.989 24.4479 169.187 24.5553C169.376 24.6626 169.532 24.803 169.655 24.9764C169.77 25.1497 169.877 25.3314 169.951 25.5296C170.025 25.7277 170.132 25.9919 170.264 26.3222L172.936 32.944C173.142 33.4477 173.248 33.811 173.248 34.0422C173.248 34.2734 173.15 34.4963 172.952 34.6945C172.755 34.8926 172.517 34.9917 172.237 34.9917C172.073 34.9917 171.933 34.9587 171.818 34.9009C171.703 34.8431 171.604 34.7605 171.522 34.6614C171.44 34.5623 171.357 34.4055 171.267 34.1991C171.176 33.9926 171.094 33.811 171.037 33.6459L171.02 33.6624ZM166.925 30.8138H169.976L168.438 26.5782L166.925 30.8138Z" fill="#A8A8A8"/>
<path d="M176.775 25.6535V33.1175H180.968C181.305 33.1175 181.56 33.2 181.741 33.3652C181.922 33.5303 182.012 33.7367 182.012 33.9844C182.012 34.2321 181.922 34.4385 181.749 34.5954C181.577 34.7523 181.314 34.8266 180.976 34.8266H175.977C175.525 34.8266 175.204 34.7275 175.007 34.5294C174.81 34.3312 174.711 34.0009 174.711 33.5551V25.6535C174.711 25.2324 174.801 24.9186 174.991 24.7122C175.18 24.5058 175.426 24.3984 175.731 24.3984C176.035 24.3984 176.29 24.5058 176.487 24.7122C176.684 24.9186 176.775 25.2324 176.775 25.6617V25.6535Z" fill="#A8A8A8"/>
<path d="M195.636 31.5816C195.636 31.9119 195.554 32.2587 195.398 32.6385C195.242 33.0183 194.987 33.3899 194.641 33.7614C194.296 34.133 193.86 34.4219 193.326 34.6531C192.791 34.8843 192.167 34.9999 191.459 34.9999C190.917 34.9999 190.432 34.9504 189.988 34.843C189.544 34.744 189.149 34.5788 188.787 34.3641C188.425 34.1495 188.096 33.8605 187.792 33.5055C187.521 33.1834 187.291 32.8201 187.102 32.4238C186.912 32.0275 186.764 31.5982 186.674 31.144C186.575 30.6899 186.534 30.211 186.534 29.6991C186.534 28.8735 186.658 28.1304 186.896 27.4781C187.134 26.8258 187.48 26.2644 187.924 25.802C188.368 25.3396 188.894 24.9846 189.494 24.7451C190.094 24.5057 190.736 24.3818 191.41 24.3818C192.241 24.3818 192.972 24.547 193.622 24.8772C194.271 25.2075 194.765 25.6203 195.102 26.1075C195.439 26.5946 195.62 27.057 195.62 27.4863C195.62 27.7258 195.538 27.9322 195.373 28.1138C195.209 28.2955 195.003 28.3863 194.765 28.3863C194.502 28.3863 194.304 28.3203 194.173 28.1964C194.041 28.0726 193.893 27.8496 193.729 27.5441C193.457 27.0322 193.145 26.6524 192.775 26.4047C192.413 26.1488 191.961 26.0249 191.427 26.0249C190.58 26.0249 189.897 26.3469 189.396 26.9992C188.894 27.6515 188.639 28.568 188.639 29.7652C188.639 30.5661 188.754 31.2266 188.976 31.755C189.198 32.2835 189.519 32.6798 189.922 32.944C190.325 33.2082 190.81 33.3321 191.361 33.3321C191.953 33.3321 192.454 33.1834 192.865 32.8862C193.277 32.589 193.589 32.1514 193.795 31.5816C193.885 31.3092 193.992 31.0945 194.123 30.9211C194.255 30.7477 194.461 30.6652 194.748 30.6652C194.995 30.6652 195.209 30.7477 195.382 30.9211C195.554 31.0945 195.645 31.3092 195.645 31.5651L195.636 31.5816Z" fill="#A8A8A8"/>
<path d="M201.993 24.3901C203.053 24.3901 203.958 24.6048 204.723 25.0342C205.487 25.4635 206.055 26.0828 206.449 26.8754C206.836 27.668 207.033 28.601 207.033 29.6744C207.033 30.467 206.926 31.1854 206.712 31.8376C206.499 32.4899 206.178 33.0514 205.75 33.522C205.323 34.0009 204.797 34.3642 204.172 34.6119C203.547 34.8596 202.84 34.9917 202.034 34.9917C201.228 34.9917 200.521 34.8596 199.888 34.6036C199.255 34.3477 198.728 33.9761 198.309 33.5055C197.89 33.0349 197.569 32.4652 197.347 31.8046C197.125 31.1441 197.026 30.4258 197.026 29.6579C197.026 28.89 197.141 28.1469 197.363 27.4864C197.585 26.8259 197.914 26.2727 198.342 25.8103C198.77 25.3479 199.288 24.9929 199.904 24.7534C200.521 24.5057 201.212 24.3901 201.993 24.3901ZM204.936 29.6661C204.936 28.9148 204.813 28.2625 204.575 27.7176C204.336 27.1644 203.991 26.7515 203.539 26.4708C203.086 26.1901 202.577 26.0497 201.993 26.0497C201.582 26.0497 201.195 26.124 200.85 26.2809C200.496 26.4378 200.2 26.6607 199.945 26.9662C199.69 27.2635 199.493 27.6433 199.345 28.1139C199.197 28.5763 199.123 29.0964 199.123 29.6744C199.123 30.2524 199.197 30.7808 199.345 31.2597C199.493 31.7303 199.699 32.1184 199.962 32.4321C200.225 32.7459 200.537 32.9771 200.883 33.1257C201.228 33.2826 201.606 33.3569 202.026 33.3569C202.552 33.3569 203.045 33.2248 203.481 32.9606C203.925 32.6963 204.279 32.2835 204.542 31.7303C204.805 31.1771 204.936 30.4918 204.936 29.6827V29.6661Z" fill="#A8A8A8"/>
<path d="M211.498 25.6369L215.478 31.6808V25.5791C215.478 25.1828 215.56 24.8855 215.732 24.6874C215.905 24.4892 216.127 24.3901 216.415 24.3901C216.703 24.3901 216.949 24.4892 217.122 24.6874C217.295 24.8855 217.377 25.1828 217.377 25.5791V33.6459C217.377 34.5458 217.007 34.9999 216.259 34.9999C216.07 34.9999 215.905 34.9752 215.757 34.9174C215.609 34.8678 215.469 34.777 215.338 34.6614C215.206 34.5458 215.091 34.4055 214.976 34.2486C214.861 34.0917 214.754 33.9348 214.639 33.7697L210.758 27.7919V33.8027C210.758 34.1908 210.667 34.488 210.487 34.6945C210.306 34.8926 210.075 34.9917 209.788 34.9917C209.5 34.9917 209.261 34.8926 209.08 34.6862C208.9 34.4798 208.817 34.1908 208.817 33.8027V25.8928C208.817 25.5543 208.85 25.2901 208.932 25.1002C209.023 24.8938 209.171 24.7204 209.368 24.5883C209.574 24.4562 209.796 24.3901 210.034 24.3901C210.223 24.3901 210.38 24.4232 210.511 24.481C210.643 24.5388 210.758 24.6213 210.857 24.7287C210.955 24.8277 211.062 24.9681 211.161 25.125C211.259 25.2819 211.375 25.4552 211.481 25.6369H211.498Z" fill="#A8A8A8"/>
<path d="M226.275 26.281H224.014V33.7285C224.014 34.1578 223.915 34.4798 223.726 34.6862C223.537 34.8927 223.29 35 222.986 35C222.682 35 222.427 34.8927 222.238 34.6862C222.049 34.4798 221.95 34.1578 221.95 33.7367V26.2892H219.689C219.335 26.2892 219.072 26.2149 218.899 26.058C218.727 25.9011 218.645 25.6947 218.645 25.4388C218.645 25.1828 218.735 24.9599 218.916 24.8113C219.097 24.6626 219.352 24.5801 219.697 24.5801H226.275C226.629 24.5801 226.9 24.6626 227.073 24.8195C227.245 24.9764 227.336 25.1828 227.336 25.4388C227.336 25.6947 227.245 25.9011 227.073 26.058C226.9 26.2149 226.629 26.2892 226.275 26.2892V26.281Z" fill="#A8A8A8"/>
<path d="M231.338 30.434H230.614V33.7284C230.614 34.166 230.515 34.4797 230.326 34.6861C230.137 34.8926 229.89 34.9916 229.578 34.9916C229.249 34.9916 228.994 34.8843 228.813 34.6696C228.632 34.455 228.542 34.1412 228.542 33.7284V25.835C228.542 25.3891 228.641 25.0589 228.838 24.8607C229.035 24.6626 229.364 24.5635 229.808 24.5635H233.171C233.632 24.5635 234.035 24.58 234.363 24.6213C234.692 24.6626 234.988 24.7451 235.251 24.8607C235.572 24.9928 235.852 25.191 236.098 25.4387C236.345 25.6864 236.534 25.9836 236.658 26.3139C236.789 26.6442 236.847 26.9992 236.847 27.3707C236.847 28.1386 236.633 28.7496 236.205 29.2037C235.778 29.6578 235.12 29.9881 234.248 30.178C234.618 30.3762 234.964 30.6651 235.301 31.045C235.638 31.4248 235.934 31.8376 236.197 32.2669C236.46 32.6963 236.666 33.0844 236.814 33.4394C236.962 33.7862 237.036 34.0256 237.036 34.1577C237.036 34.2898 236.995 34.4302 236.904 34.5623C236.822 34.6944 236.699 34.8017 236.551 34.8761C236.403 34.9504 236.23 34.9916 236.033 34.9916C235.802 34.9916 235.605 34.9338 235.449 34.8265C235.293 34.7192 235.153 34.5788 235.038 34.4137C234.923 34.2485 234.766 34.0008 234.577 33.6706L233.747 32.2835C233.451 31.7715 233.188 31.3917 232.949 31.1193C232.711 30.8551 232.481 30.6734 232.234 30.5743C231.987 30.4752 231.691 30.4257 231.321 30.4257L231.338 30.434ZM232.522 26.124H230.614V28.9478H232.464C232.957 28.9478 233.377 28.9065 233.722 28.8157C234.067 28.7248 234.322 28.5845 234.495 28.3781C234.676 28.1716 234.766 27.8827 234.766 27.5194C234.766 27.2386 234.692 26.9827 234.553 26.768C234.413 26.5533 234.207 26.3882 233.952 26.2809C233.714 26.1818 233.237 26.124 232.522 26.124Z" fill="#A8A8A8"/>
<path d="M245.358 33.6624L244.873 32.3743H240.721L240.235 33.6871C240.046 34.1991 239.882 34.5458 239.75 34.7275C239.619 34.9091 239.397 34.9999 239.084 34.9999C238.821 34.9999 238.591 34.9009 238.394 34.711C238.196 34.5211 238.098 34.3064 238.098 34.0587C238.098 33.9183 238.122 33.778 238.163 33.6211C238.213 33.4725 238.287 33.2661 238.394 33.0018L241.008 26.3387C241.082 26.1488 241.173 25.9176 241.28 25.6534C241.387 25.3892 241.494 25.1663 241.617 24.9846C241.732 24.8112 241.888 24.6626 242.086 24.5553C242.283 24.4479 242.513 24.3901 242.801 24.3901C243.089 24.3901 243.327 24.4479 243.524 24.5553C243.714 24.6626 243.87 24.803 243.993 24.9764C244.108 25.1497 244.215 25.3314 244.289 25.5296C244.363 25.7277 244.47 25.9919 244.602 26.3222L247.274 32.944C247.479 33.4477 247.586 33.811 247.586 34.0422C247.586 34.2734 247.488 34.4963 247.29 34.6945C247.093 34.8926 246.855 34.9917 246.575 34.9917C246.411 34.9917 246.271 34.9587 246.156 34.9009C246.041 34.8431 245.942 34.7605 245.86 34.6614C245.777 34.5623 245.695 34.4055 245.605 34.1991C245.514 33.9926 245.432 33.811 245.375 33.6459L245.358 33.6624ZM241.263 30.8138H244.314L242.776 26.5782L241.263 30.8138Z" fill="#A8A8A8"/>
<path d="M257.428 31.5816C257.428 31.9119 257.346 32.2587 257.19 32.6385C257.034 33.0183 256.779 33.3899 256.433 33.7614C256.088 34.133 255.652 34.4219 255.118 34.6531C254.583 34.8843 253.959 34.9999 253.251 34.9999C252.709 34.9999 252.224 34.9504 251.78 34.843C251.336 34.744 250.941 34.5788 250.579 34.3641C250.217 34.1495 249.888 33.8605 249.584 33.5055C249.313 33.1834 249.083 32.8201 248.894 32.4238C248.704 32.0275 248.556 31.5982 248.466 31.144C248.367 30.6899 248.326 30.211 248.326 29.6991C248.326 28.8735 248.45 28.1304 248.688 27.4781C248.926 26.8258 249.272 26.2644 249.716 25.802C250.16 25.3396 250.686 24.9846 251.286 24.7451C251.886 24.5057 252.528 24.3818 253.202 24.3818C254.033 24.3818 254.764 24.547 255.414 24.8772C256.063 25.2075 256.557 25.6203 256.894 26.1075C257.231 26.5946 257.412 27.057 257.412 27.4863C257.412 27.7258 257.33 27.9322 257.165 28.1138C257.001 28.2955 256.795 28.3863 256.557 28.3863C256.294 28.3863 256.096 28.3203 255.965 28.1964C255.833 28.0726 255.685 27.8496 255.521 27.5441C255.249 27.0322 254.937 26.6524 254.567 26.4047C254.205 26.1488 253.753 26.0249 253.219 26.0249C252.372 26.0249 251.689 26.3469 251.188 26.9992C250.686 27.6515 250.431 28.568 250.431 29.7652C250.431 30.5661 250.546 31.2266 250.768 31.755C250.99 32.2835 251.311 32.6798 251.714 32.944C252.117 33.2082 252.602 33.3321 253.153 33.3321C253.745 33.3321 254.246 33.1834 254.657 32.8862C255.069 32.589 255.381 32.1514 255.587 31.5816C255.677 31.3092 255.784 31.0945 255.915 30.9211C256.047 30.7477 256.253 30.6652 256.54 30.6652C256.787 30.6652 257.001 30.7477 257.173 30.9211C257.346 31.0945 257.437 31.3092 257.437 31.5651L257.428 31.5816Z" fill="#A8A8A8"/>
<path d="M265.921 26.281H263.66V33.7285C263.66 34.1578 263.562 34.4798 263.372 34.6862C263.183 34.8927 262.937 35 262.632 35C262.328 35 262.073 34.8927 261.884 34.6862C261.695 34.4798 261.596 34.1578 261.596 33.7367V26.2892H259.335C258.982 26.2892 258.719 26.2149 258.546 26.058C258.373 25.9011 258.291 25.6947 258.291 25.4388C258.291 25.1828 258.381 24.9599 258.562 24.8113C258.743 24.6626 258.998 24.5801 259.343 24.5801H265.921C266.275 24.5801 266.546 24.6626 266.719 24.8195C266.892 24.9764 266.982 25.1828 266.982 25.4388C266.982 25.6947 266.892 25.9011 266.719 26.058C266.546 26.2149 266.275 26.2892 265.921 26.2892V26.281Z" fill="#A8A8A8"/>
<path d="M272.516 24.3901C273.577 24.3901 274.481 24.6048 275.246 25.0342C276.011 25.4635 276.578 26.0828 276.973 26.8754C277.359 27.668 277.556 28.601 277.556 29.6744C277.556 30.467 277.45 31.1854 277.236 31.8376C277.022 32.4899 276.701 33.0514 276.274 33.522C275.846 34.0009 275.32 34.3642 274.695 34.6119C274.07 34.8596 273.363 34.9917 272.557 34.9917C271.751 34.9917 271.044 34.8596 270.411 34.6036C269.778 34.3477 269.252 33.9761 268.833 33.5055C268.413 33.0349 268.092 32.4652 267.87 31.8046C267.648 31.1441 267.55 30.4258 267.55 29.6579C267.55 28.89 267.665 28.1469 267.887 27.4864C268.109 26.8259 268.438 26.2727 268.865 25.8103C269.293 25.3479 269.811 24.9929 270.428 24.7534C271.044 24.5057 271.735 24.3901 272.516 24.3901ZM275.452 29.6661C275.452 28.9148 275.328 28.2625 275.09 27.7176C274.851 27.1644 274.506 26.7515 274.054 26.4708C273.601 26.1901 273.092 26.0497 272.508 26.0497C272.097 26.0497 271.71 26.124 271.365 26.2809C271.011 26.4378 270.715 26.6607 270.461 26.9662C270.206 27.2635 270.008 27.6433 269.86 28.1139C269.712 28.5763 269.638 29.0964 269.638 29.6744C269.638 30.2524 269.712 30.7808 269.86 31.2597C270.008 31.7303 270.214 32.1184 270.477 32.4321C270.74 32.7459 271.053 32.9771 271.398 33.1257C271.743 33.2826 272.121 33.3569 272.541 33.3569C273.067 33.3569 273.56 33.2248 273.996 32.9606C274.44 32.6963 274.794 32.2835 275.057 31.7303C275.32 31.1771 275.452 30.4918 275.452 29.6827V29.6661Z" fill="#A8A8A8"/>
<path d="M282.104 30.434H281.381V33.7284C281.381 34.166 281.282 34.4797 281.093 34.6861C280.904 34.8926 280.657 34.9916 280.345 34.9916C280.016 34.9916 279.761 34.8843 279.58 34.6696C279.399 34.455 279.309 34.1412 279.309 33.7284V25.835C279.309 25.3891 279.407 25.0589 279.605 24.8607C279.802 24.6626 280.131 24.5635 280.575 24.5635H283.938C284.398 24.5635 284.801 24.58 285.13 24.6213C285.459 24.6626 285.755 24.7451 286.018 24.8607C286.339 24.9928 286.618 25.191 286.865 25.4387C287.112 25.6864 287.301 25.9836 287.424 26.3139C287.556 26.6442 287.613 26.9992 287.613 27.3707C287.613 28.1386 287.399 28.7496 286.972 29.2037C286.544 29.6578 285.887 29.9881 285.015 30.178C285.385 30.3762 285.73 30.6651 286.067 31.045C286.405 31.4248 286.701 31.8376 286.964 32.2669C287.227 32.6963 287.432 33.0844 287.58 33.4394C287.728 33.7862 287.802 34.0256 287.802 34.1577C287.802 34.2898 287.761 34.4302 287.671 34.5623C287.589 34.6944 287.465 34.8017 287.317 34.8761C287.169 34.9504 286.997 34.9916 286.799 34.9916C286.569 34.9916 286.372 34.9338 286.215 34.8265C286.059 34.7192 285.919 34.5788 285.804 34.4137C285.689 34.2485 285.533 34.0008 285.344 33.6706L284.513 32.2835C284.217 31.7715 283.954 31.3917 283.716 31.1193C283.477 30.8551 283.247 30.6734 283 30.5743C282.754 30.4752 282.458 30.4257 282.088 30.4257L282.104 30.434ZM283.288 26.124H281.381V28.9478H283.231C283.724 28.9478 284.143 28.9065 284.489 28.8157C284.834 28.7248 285.089 28.5845 285.262 28.3781C285.443 28.1716 285.533 27.8827 285.533 27.5194C285.533 27.2386 285.459 26.9827 285.319 26.768C285.179 26.5533 284.974 26.3882 284.719 26.2809C284.48 26.1818 284.004 26.124 283.288 26.124Z" fill="#A8A8A8"/>
<path d="M297.348 31.7465C297.348 32.3658 297.192 32.9272 296.871 33.4226C296.55 33.918 296.09 34.3061 295.473 34.5868C294.857 34.8675 294.133 35.0079 293.294 35.0079C292.283 35.0079 291.452 34.818 290.803 34.4382C290.342 34.1657 289.964 33.7942 289.668 33.34C289.38 32.8777 289.232 32.4318 289.232 32.0025C289.232 31.7548 289.323 31.5318 289.496 31.3584C289.668 31.1768 289.89 31.086 290.162 31.086C290.384 31.086 290.564 31.152 290.712 31.2924C290.86 31.4328 290.992 31.6392 291.099 31.9116C291.23 32.2419 291.37 32.5144 291.518 32.7291C291.666 32.952 291.88 33.1254 292.16 33.274C292.431 33.4144 292.793 33.4887 293.237 33.4887C293.853 33.4887 294.347 33.3483 294.733 33.0593C295.12 32.7703 295.309 32.4153 295.309 31.986C295.309 31.6474 295.202 31.3667 294.996 31.1603C294.791 30.9456 294.519 30.7887 294.199 30.6731C293.878 30.5576 293.434 30.442 292.883 30.3181C292.151 30.1447 291.535 29.9466 291.041 29.7154C290.548 29.4842 290.153 29.1704 289.866 28.7741C289.578 28.3778 289.43 27.8824 289.43 27.2879C289.43 26.6934 289.586 26.2228 289.89 25.7852C290.194 25.3476 290.638 25.0091 291.222 24.7779C291.806 24.5467 292.489 24.4229 293.27 24.4229C293.895 24.4229 294.437 24.4972 294.898 24.654C295.358 24.8109 295.736 25.0173 296.032 25.2733C296.328 25.5292 296.559 25.8017 296.698 26.0907C296.838 26.3714 296.904 26.6522 296.904 26.9246C296.904 27.1723 296.813 27.3952 296.641 27.5934C296.468 27.7916 296.246 27.8906 295.991 27.8906C295.753 27.8906 295.572 27.8329 295.449 27.709C295.325 27.5852 295.194 27.3952 295.046 27.1228C294.857 26.7347 294.635 26.4375 294.38 26.2145C294.125 25.9916 293.697 25.8925 293.122 25.8925C292.587 25.8925 292.16 26.0081 291.831 26.2476C291.502 26.487 291.337 26.7677 291.337 27.098C291.337 27.3044 291.395 27.4778 291.502 27.6264C291.609 27.7751 291.765 27.9072 291.962 28.0145C292.16 28.1218 292.357 28.2044 292.554 28.2705C292.752 28.3283 293.081 28.4191 293.541 28.5347C294.117 28.6668 294.635 28.8154 295.103 28.9805C295.572 29.1457 295.967 29.3438 296.295 29.575C296.624 29.8062 296.879 30.1034 297.06 30.4585C297.241 30.8135 297.331 31.2511 297.331 31.7713L297.348 31.7465Z" fill="#A8A8A8"/>
</g>
<defs>
<clipPath id="clip0_67_1097">
<rect width="312" height="35" fill="white"/>
</clipPath>
</defs>
</svg>
