<svg width="394" height="45" viewBox="0 0 394 45" fill="none" xmlns="http://www.w3.org/2000/svg">
<g clip-path="url(#clip0_67_1044)">
<path d="M6.10352e-05 21.879V20.1592H0.737286C1.07994 20.1592 1.36029 20.1061 1.59911 19.9894C1.83793 19.8832 2.02483 19.6921 2.15982 19.4267C2.2948 19.1613 2.36749 18.8216 2.36749 18.397V3.80041C2.36749 3.37578 2.30519 3.03608 2.18059 2.79192C2.05598 2.53714 1.88985 2.35667 1.70295 2.22928C1.50566 2.11251 1.29799 2.04882 1.07994 2.04882H6.10352e-05V0.329071H7.90187L11.7022 13.7898L15.2533 0.329071H23.0513V2.04882H21.9091C21.7015 2.04882 21.5146 2.10189 21.338 2.21867C21.1615 2.32482 21.0162 2.50529 20.8916 2.72822C20.7773 2.96177 20.715 3.26962 20.715 3.65179V18.5881C20.715 18.949 20.767 19.2463 20.8812 19.4798C20.9954 19.7134 21.1511 19.8832 21.3588 19.9894C21.5665 20.0955 21.8157 20.1592 22.1064 20.1592H23.0409V21.879H14.3811V20.1592H14.7134C15.0664 20.1592 15.3572 20.0955 15.5752 19.9788C15.7933 19.862 15.9594 19.6603 16.0529 19.3949C16.1463 19.1295 16.2086 18.7579 16.2086 18.2909V3.61994L11.4011 21.879H9.50092L4.38188 3.58809V18.259C4.38188 18.8004 4.45456 19.2144 4.61031 19.4798C4.76606 19.7558 4.97373 19.9363 5.25409 20.0212C5.53444 20.1061 5.87709 20.1592 6.28205 20.1592H6.48972V21.879H6.10352e-05Z" fill="#F47200"/>
<path d="M23.7894 21.879V20.1592H24.0179C24.319 20.1592 24.589 20.0955 24.8278 19.9788C25.0666 19.862 25.2846 19.6497 25.5027 19.3418C25.7104 19.0446 25.9077 18.5987 26.0946 18.0148L31.5147 0.329071H35.6162L40.8806 18.1953C41.0363 18.6624 41.2025 19.034 41.3998 19.3312C41.597 19.6284 41.8151 19.8301 42.0747 19.9681C42.3239 20.0955 42.6042 20.1698 42.9157 20.1698H43.1961V21.8896H34.2767V20.1698H35.2112C35.5331 20.1698 35.8031 20.0955 36.0211 19.9575C36.2392 19.8195 36.3534 19.5329 36.3534 19.1083C36.3534 18.9278 36.343 18.7473 36.3119 18.5775C36.2807 18.4076 36.2496 18.2378 36.208 18.0785C36.1665 17.9193 36.125 17.7919 36.0938 17.7176L35.2631 14.8514H29.3342L28.68 17.2081C28.6489 17.3673 28.597 17.5584 28.545 17.7813C28.4827 18.0042 28.4412 18.2272 28.4101 18.4607C28.3789 18.6943 28.3581 18.896 28.3581 19.0764C28.3581 19.4161 28.4412 19.6815 28.597 19.8726C28.7527 20.0637 29.0331 20.1592 29.4173 20.1592H30.5283V21.879H23.7894ZM29.8637 12.8556H34.7232L33.2488 7.17621C33.1449 6.77281 33.0411 6.36941 32.9476 5.96601C32.8438 5.56262 32.7503 5.1486 32.6569 4.71336C32.5634 4.27812 32.4804 3.84287 32.3869 3.39701C32.3039 3.82164 32.2104 4.24627 32.1066 4.66028C32.0027 5.08491 31.8989 5.49892 31.8055 5.90232C31.7016 6.30572 31.5978 6.70911 31.4732 7.11251L29.8534 12.845L29.8637 12.8556Z" fill="#F47200"/>
<path d="M43.7982 21.879V20.1592H44.9611C45.1999 20.1592 45.4076 20.0849 45.5841 19.9469C45.7606 19.8089 45.8956 19.6178 45.9995 19.3737C46.1033 19.1295 46.1552 18.8429 46.1552 18.5032V3.74733C46.1552 3.34393 46.0929 3.01485 45.9683 2.77068C45.8437 2.51591 45.6776 2.33544 45.4699 2.22928C45.2726 2.12313 45.0338 2.05943 44.7638 2.05943H43.7982V0.329071H52.6864V2.04882H51.8765C51.6377 2.04882 51.4404 2.10189 51.2743 2.21867C51.1081 2.32482 50.9731 2.50529 50.8797 2.72822C50.7862 2.96177 50.7447 3.26962 50.7447 3.65179V9.66028H56.6736V3.71548C56.6736 3.33332 56.6321 3.01485 56.5387 2.76007C56.4452 2.50529 56.3102 2.32482 56.1233 2.21867C55.9364 2.11251 55.708 2.04882 55.438 2.04882H54.7319V0.329071H63.6202V2.04882H62.478C62.2392 2.04882 62.0315 2.10189 61.8446 2.21867C61.6577 2.32482 61.5123 2.50529 61.4085 2.76007C61.3047 3.01485 61.2527 3.33332 61.2527 3.71548V18.5032C61.2527 18.8429 61.3047 19.1401 61.4189 19.3949C61.5331 19.6497 61.6785 19.8408 61.8654 19.9681C62.0523 20.0955 62.2496 20.1698 62.4676 20.1698H63.6098V21.8896H54.7216V20.1698H55.4276C55.6976 20.1698 55.926 20.0955 56.1129 19.9575C56.2998 19.8195 56.4348 19.6072 56.5283 19.3418C56.6217 19.0658 56.6633 18.7579 56.6633 18.3864V11.6242H50.7343V18.5032C50.7343 18.8429 50.7758 19.1401 50.8693 19.3737C50.9627 19.6178 51.0873 19.8089 51.2639 19.9469C51.43 20.0849 51.6377 20.1592 51.8661 20.1592H52.676V21.879H43.7878H43.7982Z" fill="#F47200"/>
<path d="M64.7941 21.879V20.1592H65.9052C66.1751 20.1592 66.4036 20.0955 66.5801 19.9575C66.7566 19.8301 66.8916 19.6497 66.9954 19.4161C67.0992 19.1826 67.1512 18.896 67.1512 18.5562V3.80041C67.1512 3.28024 67.0889 2.89807 66.9747 2.65391C66.8604 2.40975 66.7047 2.25051 66.5074 2.16559C66.3101 2.08066 66.1024 2.04882 65.8636 2.04882H64.8045V0.329071H79.3933L79.4971 6.00848H77.545L77.4204 4.53289C77.3477 3.76856 77.192 3.20593 76.922 2.84499C76.6624 2.48406 76.2263 2.30359 75.6137 2.30359H71.7095V9.6709H77.7111V11.603H71.7095V19.9363H76.3198C76.9116 19.9363 77.3581 19.7346 77.6488 19.3206C77.9396 18.9066 78.1369 18.3652 78.2199 17.707L78.3964 16.2314H80.3485L80.172 21.9108H64.7941V21.879Z" fill="#F47200"/>
<path d="M81.6341 21.879V20.1592H82.3713C82.6932 20.1592 82.9736 20.1168 83.2228 20.0212C83.472 19.9257 83.6589 19.7452 83.7938 19.4798C83.9288 19.2038 84.0015 18.8004 84.0015 18.259V3.83226C84.0015 3.31209 83.9288 2.92992 83.7938 2.68576C83.6589 2.4416 83.4823 2.28236 83.2643 2.18682C83.0462 2.09128 82.8178 2.04882 82.579 2.04882H81.6445V0.329071H87.6773L96.5655 14.724V3.83226C96.5655 3.36516 96.5032 3.01485 96.3786 2.76007C96.254 2.50529 96.0878 2.32482 95.8802 2.21867C95.6725 2.11251 95.4545 2.04882 95.1949 2.04882H94.2292V0.329071H100.937V2.04882H100.002C99.7117 2.04882 99.4625 2.11251 99.2548 2.22928C99.0471 2.34606 98.881 2.54776 98.7564 2.81315C98.6422 3.08916 98.5799 3.46071 98.5799 3.94903V21.879H96.0463L86.0159 5.552V18.259C86.0159 18.8004 86.0678 19.2144 86.1717 19.4798C86.2755 19.7558 86.4312 19.9363 86.6389 20.0212C86.8466 20.1061 87.1062 20.1592 87.4073 20.1592H88.3418V21.879H81.6341Z" fill="#F47200"/>
<path d="M101.852 21.879V20.1592H103.015C103.254 20.1592 103.461 20.0849 103.638 19.9469C103.814 19.8089 103.949 19.6072 104.053 19.3418C104.157 19.0764 104.209 18.7686 104.209 18.4076V3.76856C104.209 3.34393 104.147 3.01485 104.033 2.77068C103.918 2.52652 103.752 2.34606 103.555 2.22928C103.358 2.11251 103.119 2.04882 102.849 2.04882H101.862V0.329071H110.47C112.391 0.329071 114.053 0.711237 115.434 1.46495C116.815 2.21867 117.874 3.35455 118.611 4.86198C119.348 6.36941 119.712 8.26962 119.712 10.5626C119.712 12.8556 119.358 14.7134 118.663 16.4225C117.967 18.1316 116.929 19.4692 115.558 20.4352C114.188 21.4013 112.495 21.879 110.47 21.879H101.862H101.852ZM109.858 19.8938C110.958 19.8938 111.872 19.5117 112.588 18.7473C113.315 17.983 113.866 16.9002 114.25 15.4989C114.634 14.0976 114.821 12.4522 114.821 10.5626C114.821 8.67302 114.634 7.11251 114.26 5.90232C113.886 4.68151 113.336 3.77918 112.599 3.1847C111.862 2.59022 110.958 2.29298 109.878 2.29298H108.767V19.8938H109.858Z" fill="#F47200"/>
<path d="M121.685 21.879V20.1592H122.516C122.765 20.1592 123.014 20.1168 123.243 20.0424C123.471 19.9681 123.658 19.7983 123.814 19.5435C123.969 19.2887 124.042 18.9172 124.042 18.4076V3.83226C124.042 3.31209 123.959 2.92992 123.793 2.68576C123.627 2.4416 123.43 2.28236 123.201 2.18682C122.973 2.09128 122.744 2.04882 122.526 2.04882H121.695V0.329071H130.407C132.214 0.329071 133.657 0.562617 134.748 1.01909C135.838 1.47557 136.617 2.14436 137.094 2.99361C137.572 3.84287 137.8 4.8726 137.8 6.06156C137.8 7.25052 137.634 8.121 137.291 8.8641C136.949 9.6072 136.513 10.1911 135.973 10.6157C135.433 11.0403 134.831 11.3588 134.176 11.5817L137.188 17.5584C137.644 18.4607 138.039 19.1189 138.382 19.5329C138.724 19.9469 139.109 20.1486 139.545 20.1486H139.721V21.8684H138.683C137.686 21.8684 136.824 21.794 136.087 21.656C135.35 21.518 134.727 21.2526 134.197 20.8599C133.678 20.4671 133.242 19.9044 132.91 19.1507L130.127 12.569H128.632V18.397C128.632 18.896 128.694 19.2781 128.808 19.5329C128.922 19.7877 129.099 19.9469 129.317 20.0318C129.535 20.1168 129.774 20.1486 130.023 20.1486H130.584V21.8684H121.695L121.685 21.879ZM129.888 10.7112C130.968 10.7112 131.747 10.3503 132.214 9.62843C132.692 8.90657 132.92 7.81315 132.92 6.36941C132.92 5.38215 132.806 4.58597 132.577 3.98088C132.349 3.37578 132.006 2.92992 131.549 2.65391C131.093 2.36729 130.521 2.22928 129.826 2.22928H128.611V10.7112H129.878H129.888Z" fill="#F47200"/>
<path d="M139.845 21.879V20.1592H140.073C140.374 20.1592 140.644 20.0955 140.883 19.9788C141.122 19.862 141.34 19.6497 141.558 19.3418C141.766 19.0446 141.963 18.5987 142.15 18.0148L147.57 0.329071H151.671L156.936 18.1953C157.092 18.6624 157.258 19.034 157.455 19.3312C157.652 19.6284 157.87 19.8301 158.13 19.9681C158.379 20.0955 158.659 20.1698 158.971 20.1698H159.251V21.8896H150.332V20.1698H151.266C151.588 20.1698 151.858 20.0955 152.076 19.9575C152.294 19.8195 152.409 19.5329 152.409 19.1083C152.409 18.9278 152.398 18.7473 152.367 18.5775C152.336 18.4076 152.305 18.2378 152.263 18.0785C152.222 17.9193 152.18 17.7919 152.149 17.7176L151.318 14.8514H145.389L144.735 17.2081C144.704 17.3673 144.652 17.5584 144.6 17.7813C144.538 18.0042 144.496 18.2272 144.465 18.4607C144.434 18.6943 144.413 18.896 144.413 19.0764C144.413 19.4161 144.496 19.6815 144.652 19.8726C144.808 20.0637 145.088 20.1592 145.473 20.1592H146.584V21.879H139.845ZM145.929 12.8556H150.789L149.314 7.17621C149.211 6.77281 149.117 6.36941 149.013 5.96601C148.909 5.56262 148.816 5.1486 148.723 4.71336C148.629 4.27812 148.546 3.84287 148.453 3.39701C148.369 3.82164 148.276 4.24627 148.172 4.66028C148.068 5.08491 147.965 5.49892 147.871 5.90232C147.767 6.30572 147.663 6.70911 147.539 7.11251L145.919 12.845L145.929 12.8556Z" fill="#F47200"/>
<path d="M176.727 22.1868C174.754 22.1868 173.103 21.7197 171.774 20.7962C170.445 19.8726 169.458 18.5775 168.794 16.9214C168.14 15.2654 167.807 13.3121 167.807 11.0828C167.807 8.85349 168.15 6.99574 168.825 5.32907C169.5 3.67302 170.507 2.36729 171.836 1.4331C173.165 0.498921 174.827 0.0318298 176.8 0.0318298C178.149 0.0318298 179.271 0.191066 180.153 0.498921C181.036 0.806777 181.711 1.24202 182.157 1.78342C182.604 2.32482 182.832 2.92992 182.832 3.59871C182.832 4.38427 182.542 5.05306 181.95 5.59446C181.358 6.13586 180.475 6.41187 179.292 6.41187C179.292 5.74308 179.208 5.08491 179.042 4.41612C178.876 3.74733 178.585 3.19531 178.191 2.76007C177.796 2.32482 177.246 2.09128 176.561 2.09128C175.585 2.09128 174.806 2.4416 174.245 3.15285C173.684 3.8641 173.28 4.88321 173.03 6.22079C172.781 7.55837 172.667 9.18257 172.667 11.0934C172.667 13.0042 172.823 14.7134 173.134 15.966C173.446 17.2293 173.965 18.1528 174.681 18.7473C175.398 19.3418 176.353 19.639 177.526 19.639C178.419 19.639 179.177 19.4798 179.79 19.1507C180.403 18.8216 180.932 18.4395 181.358 17.9724C181.784 17.5053 182.147 17.0594 182.438 16.6136C182.573 16.7516 182.677 16.9533 182.739 17.2187C182.812 17.4841 182.843 17.7282 182.843 17.9724C182.843 18.4182 182.749 18.8853 182.562 19.3737C182.375 19.862 182.064 20.3291 181.617 20.7431C181.171 21.1677 180.548 21.518 179.759 21.7834C178.97 22.0594 177.962 22.1868 176.748 22.1868H176.727Z" fill="#F47200"/>
<path d="M194.098 22.1869C192.126 22.1869 190.485 21.7198 189.166 20.7962C187.858 19.8726 186.882 18.5775 186.228 16.9002C185.574 15.2336 185.252 13.2803 185.252 11.0404C185.252 8.80045 185.574 6.86839 186.228 5.21234C186.882 3.5669 187.858 2.2824 189.177 1.35884C190.495 0.445886 192.136 -0.0105896 194.119 -0.0105896C196.102 -0.0105896 197.608 0.445886 198.906 1.35884C200.204 2.27179 201.201 3.56691 201.886 5.22296C202.571 6.87901 202.914 8.8323 202.914 11.0616C202.914 13.2909 202.571 15.2442 201.886 16.9002C201.201 18.5563 200.204 19.8514 198.896 20.775C197.587 21.6985 195.988 22.1656 194.098 22.1656V22.1869ZM194.098 20.1062C195.074 20.1062 195.853 19.7452 196.424 19.034C196.995 18.3227 197.411 17.293 197.67 15.9448C197.92 14.5966 198.055 12.9724 198.055 11.0828C198.055 9.19323 197.93 7.56903 197.67 6.22083C197.411 4.87264 197.006 3.84291 196.424 3.14228C195.843 2.44164 195.085 2.08071 194.119 2.08071C192.665 2.08071 191.638 2.86627 191.025 4.43739C190.423 6.00852 190.111 8.21659 190.111 11.0828C190.111 13.9491 190.412 16.1359 191.025 17.7283C191.638 19.3206 192.655 20.1168 194.088 20.1168L194.098 20.1062Z" fill="#F47200"/>
<path d="M204.896 21.879V20.1592H205.633C205.955 20.1592 206.235 20.1168 206.485 20.0212C206.734 19.9257 206.921 19.7452 207.056 19.4798C207.191 19.2038 207.263 18.8004 207.263 18.259V3.83226C207.263 3.31209 207.191 2.92992 207.056 2.68576C206.921 2.4416 206.744 2.28236 206.526 2.18682C206.308 2.09128 206.08 2.04882 205.841 2.04882H204.906V0.329071H210.939L219.827 14.724V3.83226C219.827 3.36516 219.765 3.01485 219.64 2.76007C219.516 2.50529 219.35 2.32482 219.142 2.21867C218.934 2.11251 218.716 2.04882 218.457 2.04882H217.491V0.329071H224.199V2.04882H223.264C222.974 2.04882 222.724 2.11251 222.517 2.22928C222.309 2.34606 222.143 2.54776 222.018 2.81315C221.904 3.08916 221.842 3.46071 221.842 3.94903V21.879H219.308L209.278 5.552V18.259C209.278 18.8004 209.33 19.2144 209.434 19.4798C209.537 19.7558 209.693 19.9363 209.901 20.0212C210.108 20.1061 210.368 20.1592 210.669 20.1592H211.604V21.879H204.896Z" fill="#F47200"/>
<path d="M231.509 22.1868C230.242 22.1868 229.204 22.0595 228.384 21.7941C227.563 21.5287 226.92 21.189 226.463 20.7537C225.996 20.3185 225.674 19.862 225.497 19.3631C225.321 18.8641 225.227 18.4077 225.227 17.9936C225.227 17.1656 225.373 16.5393 225.663 16.0934C225.954 15.6476 226.328 15.3397 226.795 15.138C227.262 14.9469 227.761 14.8514 228.301 14.8514C228.301 16.1147 228.477 17.155 228.83 17.9406C229.183 18.7367 229.64 19.3206 230.211 19.6922C230.772 20.0637 231.374 20.2548 231.997 20.2548C232.942 20.2548 233.669 19.9469 234.188 19.3206C234.707 18.6943 234.956 17.9936 234.956 17.2081C234.956 16.5393 234.78 15.9767 234.437 15.4989C234.095 15.0212 233.596 14.586 232.952 14.172C232.309 13.758 231.53 13.3333 230.595 12.8875C229.349 12.2824 228.373 11.6348 227.667 10.9554C226.972 10.276 226.463 9.5223 226.162 8.70489C225.861 7.88748 225.705 7.01699 225.705 6.09343C225.705 4.84077 225.996 3.76859 226.577 2.86625C227.158 1.96392 227.948 1.26328 228.934 0.76434C229.92 0.265402 231.042 0.0212402 232.288 0.0212402C233.534 0.0212402 234.655 0.212323 235.496 0.583873C236.327 0.955423 236.95 1.42251 237.345 1.98515C237.739 2.54778 237.937 3.13164 237.937 3.73674C237.937 4.45861 237.687 5.07432 237.179 5.56264C236.67 6.05096 235.808 6.30574 234.593 6.30574C234.593 5.62634 234.489 4.95755 234.282 4.29937C234.074 3.6412 233.762 3.0998 233.347 2.65394C232.932 2.20808 232.413 1.98515 231.79 1.98515C231.094 1.98515 230.523 2.18685 230.066 2.60086C229.609 3.01487 229.381 3.65181 229.381 4.5223C229.381 4.98939 229.495 5.44587 229.723 5.89173C229.952 6.3482 230.377 6.8153 231.011 7.293C231.644 7.78133 232.558 8.31211 233.762 8.89597C234.998 9.45861 235.974 10.0743 236.69 10.7537C237.407 11.4331 237.916 12.155 238.206 12.9406C238.497 13.7261 238.653 14.6072 238.653 15.5945C238.653 16.9002 238.362 18.0467 237.791 19.034C237.22 20.0212 236.389 20.7856 235.309 21.3482C234.23 21.9002 232.963 22.1762 231.509 22.1762V22.1868Z" fill="#F47200"/>
<path d="M243.264 21.879V20.1592H244.022C244.344 20.1592 244.635 20.1168 244.884 20.0212C245.133 19.9257 245.33 19.7452 245.476 19.4586C245.621 19.172 245.694 18.7579 245.694 18.1953V2.29298H243.825C243.077 2.29298 242.568 2.46283 242.278 2.80253C241.987 3.14223 241.81 3.65179 241.748 4.30996L241.52 6.42249H239.671L239.796 0.329071H256.181L256.306 6.42249H254.457L254.281 4.30996C254.218 3.64117 254.032 3.14223 253.751 2.80253C253.46 2.46283 252.941 2.29298 252.183 2.29298H250.314V18.259C250.314 18.8004 250.387 19.2144 250.543 19.4798C250.698 19.7558 250.896 19.9363 251.155 20.0212C251.405 20.1061 251.685 20.1592 251.986 20.1592H252.775V21.879H243.274H243.264Z" fill="#F47200"/>
<path d="M257.073 21.879V20.1592H257.904C258.153 20.1592 258.402 20.1168 258.631 20.0424C258.859 19.9681 259.046 19.7983 259.202 19.5435C259.357 19.2887 259.43 18.9172 259.43 18.4076V3.83226C259.43 3.31209 259.347 2.92992 259.181 2.68576C259.015 2.4416 258.817 2.28236 258.589 2.18682C258.361 2.09128 258.132 2.04882 257.914 2.04882H257.083V0.329071H265.795C267.602 0.329071 269.045 0.562617 270.135 1.01909C271.226 1.47557 272.004 2.14436 272.482 2.99361C272.96 3.84287 273.188 4.8726 273.188 6.06156C273.188 7.25052 273.022 8.121 272.679 8.8641C272.337 9.6072 271.901 10.1911 271.361 10.6157C270.821 11.0403 270.218 11.3588 269.564 11.5817L272.576 17.5584C273.032 18.4607 273.427 19.1189 273.77 19.5329C274.112 19.9469 274.496 20.1486 274.933 20.1486H275.109V21.8684H274.071C273.074 21.8684 272.212 21.794 271.475 21.656C270.738 21.518 270.115 21.2526 269.585 20.8599C269.066 20.4671 268.63 19.9044 268.298 19.1507L265.515 12.569H264.02V18.397C264.02 18.896 264.082 19.2781 264.196 19.5329C264.31 19.7877 264.487 19.9469 264.705 20.0318C264.923 20.1168 265.162 20.1486 265.411 20.1486H265.972V21.8684H257.083L257.073 21.879ZM265.276 10.7112C266.356 10.7112 267.135 10.3503 267.602 9.62843C268.08 8.90657 268.308 7.81315 268.308 6.36941C268.308 5.38215 268.194 4.58597 267.965 3.98088C267.737 3.37578 267.394 2.92992 266.937 2.65391C266.48 2.36729 265.909 2.22928 265.214 2.22928H263.999V10.7112H265.266H265.276Z" fill="#F47200"/>
<path d="M284.953 22.1868C283.551 22.1868 282.316 21.9533 281.256 21.4968C280.197 21.0403 279.356 20.2972 278.764 19.2781C278.162 18.259 277.861 16.9427 277.861 15.3078V3.83226C277.861 3.31209 277.788 2.92992 277.633 2.68576C277.477 2.4416 277.269 2.28236 277.01 2.18682C276.75 2.09128 276.47 2.04882 276.158 2.04882H275.504V0.329071H284.797V2.04882H284.143C283.842 2.04882 283.551 2.09128 283.292 2.18682C283.032 2.27175 282.824 2.45221 282.669 2.71761C282.513 2.983 282.44 3.39701 282.44 3.95964V15.552C282.44 17.2187 282.762 18.3652 283.406 18.9915C284.05 19.6178 284.922 19.9257 286.043 19.9257C286.697 19.9257 287.289 19.7664 287.808 19.4586C288.328 19.1507 288.733 18.6518 289.034 17.983C289.335 17.3142 289.491 16.4331 289.491 15.3397V3.83226C289.491 3.31209 289.418 2.92992 289.262 2.68576C289.106 2.4416 288.909 2.28236 288.67 2.18682C288.421 2.09128 288.141 2.04882 287.819 2.04882H287.165V0.329071H293.904V2.04882H293.249C292.927 2.04882 292.637 2.09128 292.377 2.18682C292.118 2.27175 291.91 2.45221 291.754 2.71761C291.598 2.983 291.526 3.39701 291.526 3.95964V15.4034C291.526 16.7516 291.297 17.9299 290.851 18.949C290.404 19.9681 289.698 20.7643 288.733 21.3376C287.767 21.9108 286.511 22.1974 284.963 22.1974L284.953 22.1868Z" fill="#F47200"/>
<path d="M304.62 22.1868C302.647 22.1868 300.996 21.7197 299.667 20.7962C298.338 19.8726 297.352 18.5775 296.687 16.9214C296.033 15.2654 295.701 13.3121 295.701 11.0828C295.701 8.85349 296.043 6.99574 296.718 5.32907C297.393 3.67302 298.4 2.36729 299.729 1.4331C301.059 0.498921 302.72 0.0318298 304.693 0.0318298C306.043 0.0318298 307.164 0.191066 308.047 0.498921C308.929 0.806777 309.604 1.24202 310.051 1.78342C310.497 2.32482 310.726 2.92992 310.726 3.59871C310.726 4.38427 310.435 5.05306 309.843 5.59446C309.251 6.13586 308.368 6.41187 307.185 6.41187C307.185 5.74308 307.102 5.08491 306.936 4.41612C306.769 3.74733 306.479 3.19531 306.084 2.76007C305.69 2.32482 305.139 2.09128 304.454 2.09128C303.478 2.09128 302.699 2.4416 302.138 3.15285C301.578 3.8641 301.173 4.88321 300.924 6.22079C300.674 7.55837 300.56 9.18257 300.56 11.0934C300.56 13.0042 300.716 14.7134 301.027 15.966C301.339 17.2293 301.858 18.1528 302.575 18.7473C303.291 19.3418 304.246 19.639 305.42 19.639C306.313 19.639 307.071 19.4798 307.683 19.1507C308.296 18.8216 308.825 18.4395 309.251 17.9724C309.677 17.5053 310.04 17.0594 310.331 16.6136C310.466 16.7516 310.57 16.9533 310.632 17.2187C310.705 17.4841 310.736 17.7282 310.736 17.9724C310.736 18.4182 310.642 18.8853 310.456 19.3737C310.269 19.862 309.957 20.3291 309.511 20.7431C309.064 21.1677 308.441 21.518 307.652 21.7834C306.863 22.0594 305.856 22.1868 304.641 22.1868H304.62Z" fill="#F47200"/>
<path d="M315.534 21.879V20.1592H316.292C316.614 20.1592 316.904 20.1168 317.154 20.0212C317.403 19.9257 317.6 19.7452 317.745 19.4586C317.891 19.172 317.963 18.7579 317.963 18.1953V2.29298H316.094C315.347 2.29298 314.838 2.46283 314.547 2.80253C314.257 3.14223 314.08 3.65179 314.018 4.30996L313.789 6.42249H311.941L312.066 0.329071H328.451L328.575 6.42249H326.727L326.551 4.30996C326.488 3.64117 326.301 3.14223 326.021 2.80253C325.73 2.46283 325.211 2.29298 324.453 2.29298H322.584V18.259C322.584 18.8004 322.657 19.2144 322.813 19.4798C322.968 19.7558 323.166 19.9363 323.425 20.0212C323.674 20.1061 323.955 20.1592 324.256 20.1592H325.045V21.879H315.544H315.534Z" fill="#F47200"/>
<path d="M329.333 21.879V20.1592H330.496C330.683 20.1592 330.87 20.1061 331.057 19.9894C331.244 19.8832 331.4 19.7027 331.514 19.4798C331.628 19.2463 331.691 18.949 331.691 18.5881V3.76856C331.691 3.34393 331.628 3.00423 331.514 2.76007C331.4 2.50529 331.244 2.32482 331.057 2.21867C330.87 2.11251 330.683 2.04882 330.496 2.04882H329.333V0.329071H338.627V2.04882H337.433C337.194 2.04882 336.986 2.11251 336.81 2.22928C336.633 2.34606 336.498 2.52652 336.405 2.77068C336.311 3.01485 336.27 3.35455 336.27 3.80041V18.535C336.27 18.8747 336.322 19.172 336.436 19.4267C336.55 19.6815 336.685 19.862 336.872 19.9894C337.059 20.1168 337.235 20.1698 337.443 20.1698H338.637V21.8896H329.344L329.333 21.879Z" fill="#F47200"/>
<path d="M349.445 22.1869C347.472 22.1869 345.831 21.7198 344.512 20.7962C343.204 19.8726 342.228 18.5775 341.574 16.9002C340.92 15.2336 340.598 13.2803 340.598 11.0404C340.598 8.80045 340.92 6.86839 341.574 5.21234C342.228 3.5669 343.204 2.2824 344.523 1.35884C345.842 0.445886 347.482 -0.0105896 349.465 -0.0105896C351.449 -0.0105896 352.954 0.445886 354.252 1.35884C355.55 2.27179 356.547 3.56691 357.232 5.22296C357.918 6.87901 358.26 8.8323 358.26 11.0616C358.26 13.2909 357.918 15.2442 357.232 16.9002C356.547 18.5563 355.55 19.8514 354.242 20.775C352.933 21.6985 351.334 22.1656 349.445 22.1656V22.1869ZM349.445 20.1062C350.421 20.1062 351.199 19.7452 351.771 19.034C352.342 18.3227 352.757 17.293 353.017 15.9448C353.266 14.5966 353.401 12.9724 353.401 11.0828C353.401 9.19323 353.276 7.56903 353.017 6.22083C352.757 4.87264 352.352 3.84291 351.771 3.14228C351.189 2.44164 350.431 2.08071 349.465 2.08071C348.012 2.08071 346.984 2.86627 346.371 4.43739C345.769 6.00852 345.457 8.21659 345.457 11.0828C345.457 13.9491 345.758 16.1359 346.371 17.7283C346.984 19.3206 348.001 20.1168 349.434 20.1168L349.445 20.1062Z" fill="#F47200"/>
<path d="M360.233 21.879V20.1592H360.97C361.292 20.1592 361.572 20.1168 361.821 20.0212C362.071 19.9257 362.258 19.7452 362.393 19.4798C362.528 19.2038 362.6 18.8004 362.6 18.259V3.83226C362.6 3.31209 362.528 2.92992 362.393 2.68576C362.258 2.4416 362.081 2.28236 361.863 2.18682C361.645 2.09128 361.417 2.04882 361.178 2.04882H360.243V0.329071H366.276L375.164 14.724V3.83226C375.164 3.36516 375.102 3.01485 374.977 2.76007C374.853 2.50529 374.687 2.32482 374.479 2.21867C374.271 2.11251 374.053 2.04882 373.794 2.04882H372.828V0.329071H379.536V2.04882H378.601C378.31 2.04882 378.061 2.11251 377.854 2.22928C377.646 2.34606 377.48 2.54776 377.355 2.81315C377.241 3.08916 377.179 3.46071 377.179 3.94903V21.879H374.645L364.615 5.552V18.259C364.615 18.8004 364.667 19.2144 364.77 19.4798C364.874 19.7558 365.03 19.9363 365.238 20.0212C365.445 20.1061 365.705 20.1592 366.006 20.1592H366.941V21.879H360.233Z" fill="#F47200"/>
<path d="M386.855 22.1868C385.589 22.1868 384.55 22.0595 383.73 21.7941C382.91 21.5287 382.266 21.189 381.809 20.7537C381.342 20.3185 381.02 19.862 380.843 19.3631C380.667 18.8641 380.573 18.4077 380.573 17.9936C380.573 17.1656 380.719 16.5393 381.009 16.0934C381.3 15.6476 381.674 15.3397 382.141 15.138C382.609 14.9469 383.107 14.8514 383.647 14.8514C383.647 16.1147 383.823 17.155 384.176 17.9406C384.529 18.7367 384.986 19.3206 385.557 19.6922C386.118 20.0637 386.72 20.2548 387.343 20.2548C388.288 20.2548 389.015 19.9469 389.534 19.3206C390.053 18.6943 390.303 17.9936 390.303 17.2081C390.303 16.5393 390.126 15.9767 389.784 15.4989C389.441 15.0212 388.942 14.586 388.299 14.172C387.655 13.758 386.876 13.3333 385.942 12.8875C384.696 12.2824 383.72 11.6348 383.013 10.9554C382.318 10.276 381.809 9.5223 381.508 8.70489C381.207 7.88748 381.051 7.01699 381.051 6.09343C381.051 4.84077 381.342 3.76859 381.923 2.86625C382.505 1.96392 383.294 1.26328 384.28 0.76434C385.267 0.265402 386.388 0.0212402 387.634 0.0212402C388.88 0.0212402 390.002 0.212323 390.843 0.583873C391.673 0.955423 392.296 1.42251 392.691 1.98515C393.085 2.54778 393.283 3.13164 393.283 3.73674C393.283 4.45861 393.034 5.07432 392.525 5.56264C392.016 6.05096 391.154 6.30574 389.939 6.30574C389.939 5.62634 389.835 4.95755 389.628 4.29937C389.42 3.6412 389.109 3.0998 388.693 2.65394C388.278 2.20808 387.759 1.98515 387.136 1.98515C386.44 1.98515 385.869 2.18685 385.412 2.60086C384.955 3.01487 384.727 3.65181 384.727 4.5223C384.727 4.98939 384.841 5.44587 385.069 5.89173C385.298 6.3482 385.724 6.8153 386.357 7.293C386.99 7.78133 387.904 8.31211 389.109 8.89597C390.344 9.45861 391.32 10.0743 392.037 10.7537C392.753 11.4331 393.262 12.155 393.553 12.9406C393.843 13.7261 393.999 14.6072 393.999 15.5945C393.999 16.9002 393.708 18.0467 393.137 19.034C392.566 20.0212 391.736 20.7856 390.656 21.3482C389.576 21.9002 388.309 22.1762 386.855 22.1762V22.1868Z" fill="#F47200"/>
<path d="M30.3527 40.6057C30.3527 41.0304 30.2489 41.4762 30.0516 41.9646C29.8543 42.4529 29.5324 42.9306 29.0963 43.4083C28.6602 43.886 28.1099 44.2576 27.435 44.5548C26.7601 44.852 25.9709 45.0007 25.0779 45.0007C24.3926 45.0007 23.78 44.937 23.2193 44.799C22.6586 44.6716 22.1602 44.4592 21.7033 44.1832C21.2464 43.9072 20.8311 43.5357 20.4469 43.0792C20.1043 42.6652 19.8135 42.1981 19.5747 41.6886C19.3359 41.179 19.149 40.627 19.0348 40.0431C18.9102 39.4593 18.8582 38.8435 18.8582 38.1854C18.8582 37.1238 19.014 36.1684 19.3151 35.3297C19.6162 34.4911 20.0523 33.7692 20.613 33.1747C21.1738 32.5803 21.8383 32.1238 22.5963 31.8159C23.3543 31.5081 24.1642 31.3488 25.0156 31.3488C26.0644 31.3488 26.9885 31.5612 27.8088 31.9858C28.6291 32.4104 29.2521 32.9412 29.6778 33.5675C30.1035 34.1939 30.332 34.7883 30.332 35.3404C30.332 35.6482 30.2281 35.9136 30.0101 36.1471C29.8024 36.3807 29.5428 36.4975 29.2417 36.4975C28.9094 36.4975 28.6602 36.4125 28.4941 36.2533C28.328 36.0941 28.141 35.8074 27.9334 35.4147C27.5907 34.7565 27.1962 34.2682 26.7289 33.9497C26.2616 33.6312 25.7009 33.4614 25.026 33.4614C23.9565 33.4614 23.0947 33.8754 22.4613 34.714C21.8279 35.5527 21.506 36.731 21.506 38.2703C21.506 39.3 21.6514 40.1493 21.9317 40.8287C22.2121 41.5081 22.6171 42.0176 23.1258 42.3573C23.6346 42.697 24.2473 42.8563 24.9429 42.8563C25.6906 42.8563 26.3239 42.6652 26.8431 42.283C27.3623 41.9009 27.7569 41.3382 28.0164 40.6057C28.1307 40.2554 28.2656 39.9794 28.4318 39.7565C28.5979 39.5336 28.8575 39.4274 29.2209 39.4274C29.5324 39.4274 29.8024 39.5336 30.0205 39.7565C30.2385 39.9794 30.3527 40.2554 30.3527 40.5845V40.6057Z" fill="#424242"/>
<path d="M32.8019 43.3652V32.9724C32.8019 32.431 32.9265 32.0276 33.1653 31.7622C33.4041 31.4968 33.7156 31.3588 34.0998 31.3588C34.484 31.3588 34.8163 31.4968 35.0551 31.7622C35.2939 32.0276 35.4185 32.431 35.4185 32.983V43.3758C35.4185 43.9172 35.2939 44.3312 35.0551 44.5966C34.8163 44.862 34.4944 45 34.0998 45C33.7052 45 33.4145 44.862 33.1757 44.586C32.9369 44.31 32.8123 43.9066 32.8123 43.3652H32.8019Z" fill="#424242"/>
<path d="M40.2453 33.1104L43.163 41.9533L46.0911 33.0467C46.2469 32.5796 46.3611 32.2505 46.4338 32.0701C46.5065 31.8896 46.6311 31.7198 46.8076 31.5711C46.9841 31.4225 47.2229 31.3482 47.5241 31.3482C47.7421 31.3482 47.9498 31.4013 48.1471 31.5181C48.3444 31.6348 48.4897 31.7834 48.5936 31.9745C48.6974 32.1656 48.7597 32.3567 48.7597 32.5478C48.7597 32.6752 48.7389 32.8238 48.7078 32.9724C48.6766 33.121 48.6247 33.2803 48.5728 33.4183C48.5209 33.5669 48.469 33.7155 48.417 33.8747L45.2916 42.4947C45.1774 42.8238 45.0736 43.1423 44.9594 43.4395C44.8451 43.7367 44.7205 44.0021 44.5752 44.2251C44.4298 44.448 44.2325 44.6391 43.9937 44.7771C43.7549 44.9257 43.4537 44.9894 43.1007 44.9894C42.7477 44.9894 42.4466 44.9151 42.2077 44.7771C41.9689 44.6391 41.7716 44.448 41.6159 44.2144C41.4705 43.9809 41.3355 43.7261 41.2213 43.4289C41.1071 43.1316 41.0033 42.8238 40.889 42.4947L37.8155 33.949C37.7636 33.7898 37.7117 33.6412 37.6494 33.4926C37.5871 33.344 37.5456 33.1847 37.504 33.0043C37.4625 32.8344 37.4521 32.6858 37.4521 32.5584C37.4521 32.2505 37.5767 31.9745 37.8155 31.7197C38.0544 31.465 38.3555 31.3376 38.7189 31.3376C39.1654 31.3376 39.4769 31.4756 39.6638 31.7516C39.8507 32.0276 40.0376 32.4735 40.2349 33.0892L40.2453 33.1104Z" fill="#424242"/>
<path d="M50.8363 43.3652V32.9724C50.8363 32.431 50.9609 32.0276 51.1997 31.7622C51.4385 31.4968 51.75 31.3588 52.1342 31.3588C52.5184 31.3588 52.8507 31.4968 53.0895 31.7622C53.3283 32.0276 53.4529 32.431 53.4529 32.983V43.3758C53.4529 43.9172 53.3283 44.3312 53.0895 44.5966C52.8507 44.862 52.5288 45 52.1342 45C51.7397 45 51.4489 44.862 51.2101 44.586C50.9713 44.31 50.8467 43.9066 50.8467 43.3652H50.8363Z" fill="#424242"/>
<path d="M58.9378 32.983V42.5796H64.2334C64.6591 42.5796 64.981 42.6858 65.2095 42.8981C65.4379 43.1104 65.5521 43.3758 65.5521 43.6943C65.5521 44.0127 65.4379 44.2781 65.2198 44.4798C65.0018 44.6815 64.6695 44.7771 64.2438 44.7771H57.9307C57.3596 44.7771 56.9546 44.6497 56.7054 44.3949C56.4562 44.1401 56.3316 43.7155 56.3316 43.1422V32.983C56.3316 32.4416 56.4458 32.0382 56.6846 31.7728C56.9235 31.5074 57.235 31.3694 57.6192 31.3694C58.0033 31.3694 58.3252 31.5074 58.5744 31.7728C58.8236 32.0382 58.9378 32.4416 58.9378 32.9936V32.983Z" fill="#424242"/>
<path d="M80.0141 43.2803L79.4015 41.6242H74.1578L73.5452 43.3121C73.3064 43.9703 73.0987 44.4162 72.9326 44.6497C72.7665 44.8832 72.4861 45 72.1019 45C71.7696 45 71.4789 44.8726 71.2297 44.6285C70.9805 44.3843 70.8559 44.1083 70.8559 43.7898C70.8559 43.6094 70.887 43.4289 70.939 43.2272C71.0013 43.0361 71.0947 42.7707 71.2297 42.431L74.5316 33.8641C74.6251 33.62 74.7393 33.3227 74.8743 32.983C75.0093 32.6433 75.1443 32.3567 75.3 32.1232C75.4454 31.9002 75.6427 31.7091 75.8919 31.5711C76.1411 31.4331 76.4318 31.3588 76.7952 31.3588C77.1587 31.3588 77.4598 31.4331 77.709 31.5711C77.9582 31.7091 78.1451 31.8896 78.3008 32.1125C78.4462 32.3355 78.5708 32.569 78.6746 32.8238C78.7785 33.0786 78.9031 33.4183 79.0692 33.8429L82.4438 42.3567C82.7034 43.0043 82.8384 43.4714 82.8384 43.7686C82.8384 44.0658 82.7138 44.3525 82.4646 44.6072C82.2154 44.862 81.9143 44.9894 81.5612 44.9894C81.3536 44.9894 81.177 44.9469 81.0317 44.8726C80.8863 44.7983 80.7617 44.6922 80.6579 44.5648C80.554 44.4374 80.4502 44.2357 80.336 43.9703C80.2218 43.7049 80.1179 43.4714 80.0452 43.259L80.0141 43.2803ZM74.8431 39.6178H78.6954L76.7537 34.172L74.8431 39.6178Z" fill="#424242"/>
<path d="M88.1255 32.9618L93.1511 40.7325V32.8875C93.1511 32.3779 93.2549 31.9958 93.473 31.741C93.691 31.4862 93.9714 31.3588 94.3348 31.3588C94.6982 31.3588 95.0097 31.4862 95.2278 31.741C95.4458 31.9958 95.5497 32.3779 95.5497 32.8875V43.259C95.5497 44.4161 95.0824 45 94.1375 45C93.8987 45 93.691 44.9682 93.5041 44.8939C93.3172 44.8302 93.1407 44.7134 92.9746 44.5648C92.8084 44.4161 92.6631 44.2357 92.5177 44.034C92.3723 43.8323 92.2374 43.6306 92.092 43.4183L87.191 35.7325V43.4607C87.191 43.9597 87.0768 44.3418 86.8483 44.6072C86.6199 44.862 86.3292 44.9894 85.9658 44.9894C85.6023 44.9894 85.3012 44.862 85.0728 44.5966C84.8443 44.3312 84.7405 43.9597 84.7405 43.4607V33.2909C84.7405 32.8556 84.782 32.5159 84.8859 32.2718C85.0001 32.0064 85.187 31.7835 85.4362 31.6136C85.6958 31.4438 85.9761 31.3588 86.2773 31.3588C86.5161 31.3588 86.7134 31.4013 86.8795 31.4756C87.0456 31.5499 87.191 31.6561 87.3156 31.7941C87.4402 31.9215 87.5752 32.1019 87.6998 32.3036C87.8244 32.5053 87.9698 32.7283 88.1047 32.9618H88.1255Z" fill="#424242"/>
<path d="M100.034 31.5818H103.44C104.322 31.5818 105.08 31.6667 105.714 31.8365C106.347 32.0064 106.918 32.3249 107.437 32.7813C108.777 33.9597 109.452 35.7431 109.452 38.1423C109.452 38.9384 109.379 39.6603 109.244 40.3079C109.109 40.966 108.901 41.5499 108.621 42.0807C108.341 42.6009 107.977 43.0786 107.541 43.4926C107.199 43.8111 106.814 44.0658 106.409 44.2569C105.994 44.448 105.558 44.586 105.08 44.6603C104.603 44.7346 104.073 44.7771 103.481 44.7771H100.075C99.5978 44.7771 99.2448 44.7028 99.006 44.5542C98.7672 44.4055 98.6114 44.2038 98.5387 43.9384C98.466 43.6731 98.4245 43.3227 98.4245 42.8981V33.2272C98.4245 32.6539 98.5491 32.2293 98.7983 31.9745C99.0475 31.7198 99.4628 31.5924 100.024 31.5924L100.034 31.5818ZM101.041 33.6943V42.6433H103.024C103.46 42.6433 103.803 42.6327 104.042 42.6115C104.281 42.5902 104.54 42.5266 104.81 42.431C105.07 42.3355 105.298 42.1975 105.496 42.0276C106.368 41.2739 106.804 39.9682 106.804 38.121C106.804 36.8153 106.617 35.8493 106.233 35.2017C105.849 34.5542 105.371 34.1401 104.81 33.9597C104.25 33.7792 103.564 33.6943 102.765 33.6943H101.041Z" fill="#424242"/>
<path d="M124.755 33.6412H118.868V36.879H124.288C124.683 36.879 124.984 36.9745 125.181 37.155C125.378 37.3355 125.472 37.5796 125.472 37.8769C125.472 38.1741 125.378 38.4183 125.181 38.6094C124.984 38.8004 124.693 38.896 124.288 38.896H118.868V42.6433H124.952C125.368 42.6433 125.669 42.7389 125.877 42.9406C126.084 43.1317 126.188 43.397 126.188 43.7155C126.188 44.034 126.084 44.2781 125.877 44.4798C125.669 44.6815 125.357 44.7771 124.952 44.7771H117.85C117.279 44.7771 116.874 44.6497 116.625 44.3949C116.376 44.1401 116.251 43.7155 116.251 43.1423V33.2272C116.251 32.845 116.303 32.5266 116.417 32.2824C116.532 32.0382 116.708 31.8578 116.936 31.7516C117.175 31.6455 117.476 31.5818 117.85 31.5818H124.745C125.16 31.5818 125.472 31.6773 125.669 31.8684C125.866 32.0595 125.97 32.3036 125.97 32.6115C125.97 32.9193 125.866 33.1741 125.669 33.3652C125.461 33.5563 125.16 33.6518 124.745 33.6518L124.755 33.6412Z" fill="#424242"/>
<path d="M130.832 32.983V42.5796H136.128C136.554 42.5796 136.876 42.6858 137.104 42.8981C137.332 43.1104 137.447 43.3758 137.447 43.6943C137.447 44.0127 137.332 44.2781 137.114 44.4798C136.896 44.6815 136.564 44.7771 136.138 44.7771H129.825C129.254 44.7771 128.849 44.6497 128.6 44.3949C128.351 44.1401 128.226 43.7155 128.226 43.1422V32.983C128.226 32.4416 128.34 32.0382 128.579 31.7728C128.818 31.5074 129.13 31.3694 129.514 31.3694C129.898 31.3694 130.22 31.5074 130.469 31.7728C130.718 32.0382 130.832 32.4416 130.832 32.9936V32.983Z" fill="#424242"/>
<path d="M147.664 33.6412H141.777V36.879H147.197C147.591 36.879 147.893 36.9745 148.09 37.155C148.287 37.3355 148.381 37.5796 148.381 37.8769C148.381 38.1741 148.287 38.4183 148.09 38.6094C147.893 38.8004 147.602 38.896 147.197 38.896H141.777V42.6433H147.861C148.277 42.6433 148.578 42.7389 148.785 42.9406C148.993 43.1317 149.097 43.397 149.097 43.7155C149.097 44.034 148.993 44.2781 148.785 44.4798C148.578 44.6815 148.266 44.7771 147.861 44.7771H140.759C140.188 44.7771 139.783 44.6497 139.534 44.3949C139.285 44.1401 139.16 43.7155 139.16 43.1423V33.2272C139.16 32.845 139.212 32.5266 139.326 32.2824C139.44 32.0382 139.617 31.8578 139.845 31.7516C140.084 31.6455 140.385 31.5818 140.759 31.5818H147.654C148.069 31.5818 148.381 31.6773 148.578 31.8684C148.775 32.0595 148.879 32.3036 148.879 32.6115C148.879 32.9193 148.775 33.1741 148.578 33.3652C148.37 33.5563 148.069 33.6518 147.654 33.6518L147.664 33.6412Z" fill="#424242"/>
<path d="M162.169 40.6051C162.169 41.0297 162.065 41.4756 161.868 41.9639C161.671 42.4522 161.349 42.9299 160.913 43.4077C160.477 43.8854 159.926 44.2569 159.251 44.5542C158.576 44.8514 157.787 45 156.894 45C156.209 45 155.596 44.9363 155.036 44.7983C154.475 44.6709 153.977 44.4586 153.52 44.1826C153.063 43.9066 152.648 43.535 152.263 43.0786C151.921 42.6646 151.63 42.1975 151.391 41.6879C151.152 41.1784 150.965 40.6263 150.851 40.0425C150.727 39.4586 150.675 38.8429 150.675 38.1847C150.675 37.1232 150.83 36.1677 151.132 35.3291C151.433 34.4905 151.869 33.7686 152.429 33.1741C152.99 32.5796 153.655 32.1232 154.413 31.8153C155.171 31.5074 155.981 31.3482 156.832 31.3482C157.881 31.3482 158.805 31.5605 159.625 31.9851C160.446 32.4098 161.069 32.9406 161.494 33.5669C161.92 34.1932 162.148 34.7877 162.148 35.3397C162.148 35.6476 162.045 35.913 161.837 36.1465C161.629 36.3801 161.37 36.4968 161.069 36.4968C160.736 36.4968 160.487 36.4119 160.321 36.2527C160.155 36.0934 159.968 35.8068 159.76 35.414C159.418 34.7558 159.023 34.2675 158.556 33.9491C158.099 33.62 157.528 33.4607 156.853 33.4607C155.783 33.4607 154.922 33.8747 154.288 34.7134C153.655 35.552 153.333 36.7304 153.333 38.2696C153.333 39.2994 153.478 40.1486 153.759 40.828C154.039 41.5074 154.444 42.017 154.953 42.3567C155.461 42.6964 156.074 42.8556 156.77 42.8556C157.517 42.8556 158.151 42.6646 158.67 42.2824C159.189 41.9002 159.584 41.3376 159.843 40.6051C159.957 40.2548 160.092 39.9788 160.259 39.7558C160.425 39.5329 160.684 39.4268 161.048 39.4268C161.359 39.4268 161.629 39.5329 161.847 39.7558C162.065 39.9788 162.18 40.2548 162.18 40.5839L162.169 40.6051Z" fill="#424242"/>
<path d="M172.897 33.7898H170.041V43.3652C170.041 43.9172 169.917 44.3312 169.678 44.5966C169.439 44.862 169.128 45 168.744 45C168.359 45 168.037 44.862 167.799 44.5966C167.56 44.3312 167.435 43.9172 167.435 43.3758V33.8004H164.58C164.133 33.8004 163.801 33.7049 163.583 33.5032C163.365 33.3015 163.261 33.0361 163.261 32.707C163.261 32.3779 163.375 32.0913 163.604 31.9002C163.832 31.7091 164.154 31.603 164.59 31.603H172.897C173.343 31.603 173.686 31.7091 173.904 31.9108C174.122 32.1125 174.236 32.3779 174.236 32.707C174.236 33.0361 174.122 33.3015 173.904 33.5032C173.686 33.7049 173.343 33.8004 172.897 33.8004V33.7898Z" fill="#424242"/>
<path d="M179.29 39.1295H178.377V43.3652C178.377 43.9278 178.252 44.3312 178.013 44.5966C177.774 44.862 177.463 44.9894 177.068 44.9894C176.653 44.9894 176.331 44.8514 176.103 44.5754C175.874 44.2994 175.76 43.896 175.76 43.3652V33.2166C175.76 32.6433 175.885 32.2187 176.134 31.9639C176.383 31.7091 176.798 31.5818 177.359 31.5818H181.606C182.187 31.5818 182.696 31.603 183.111 31.6561C183.527 31.7091 183.901 31.8153 184.233 31.9639C184.638 32.1338 184.991 32.3886 185.302 32.707C185.614 33.0255 185.853 33.4077 186.008 33.8323C186.175 34.2569 186.247 34.7134 186.247 35.1911C186.247 36.1784 185.977 36.9639 185.437 37.5478C184.897 38.1316 184.067 38.5563 182.966 38.8004C183.433 39.0552 183.869 39.4268 184.295 39.9151C184.721 40.4034 185.095 40.9342 185.427 41.4862C185.759 42.0382 186.019 42.5372 186.206 42.9936C186.393 43.4395 186.486 43.7474 186.486 43.9172C186.486 44.0871 186.434 44.2675 186.32 44.4374C186.216 44.6072 186.06 44.7452 185.873 44.8408C185.687 44.9363 185.469 44.9894 185.219 44.9894C184.929 44.9894 184.679 44.9151 184.482 44.7771C184.285 44.6391 184.108 44.4586 183.963 44.2463C183.818 44.034 183.62 43.7155 183.381 43.2909L182.333 41.5074C181.959 40.8493 181.627 40.3609 181.326 40.0106C181.024 39.6709 180.734 39.4374 180.422 39.31C180.111 39.1826 179.737 39.1189 179.27 39.1189L179.29 39.1295ZM180.786 33.5881H178.377V37.2187H180.713C181.336 37.2187 181.865 37.1656 182.302 37.0488C182.738 36.9321 183.06 36.7516 183.278 36.4862C183.506 36.2208 183.62 35.8493 183.62 35.3822C183.62 35.0212 183.527 34.6922 183.35 34.4161C183.174 34.1401 182.914 33.9278 182.592 33.7898C182.291 33.6624 181.689 33.5881 180.786 33.5881Z" fill="#424242"/>
<path d="M188.844 43.3652V32.9724C188.844 32.431 188.969 32.0276 189.208 31.7622C189.447 31.4968 189.758 31.3588 190.142 31.3588C190.527 31.3588 190.848 31.4968 191.098 31.7622C191.347 32.0276 191.461 32.431 191.461 32.983V43.3758C191.461 43.9172 191.336 44.3312 191.098 44.5966C190.859 44.862 190.537 45 190.142 45C189.748 45 189.457 44.862 189.218 44.586C188.969 44.31 188.855 43.9066 188.855 43.3652H188.844Z" fill="#424242"/>
<path d="M205.364 40.6051C205.364 41.0297 205.261 41.4756 205.063 41.9639C204.866 42.4522 204.544 42.9299 204.108 43.4077C203.672 43.8854 203.122 44.2569 202.447 44.5542C201.772 44.8514 200.983 45 200.09 45C199.404 45 198.792 44.9363 198.231 44.7983C197.67 44.6709 197.172 44.4586 196.715 44.1826C196.258 43.9066 195.843 43.535 195.459 43.0786C195.116 42.6646 194.825 42.1975 194.586 41.6879C194.348 41.1784 194.161 40.6263 194.047 40.0425C193.922 39.4586 193.87 38.8429 193.87 38.1847C193.87 37.1232 194.026 36.1677 194.327 35.3291C194.628 34.4905 195.064 33.7686 195.625 33.1741C196.185 32.5796 196.85 32.1232 197.608 31.8153C198.366 31.5074 199.176 31.3482 200.027 31.3482C201.076 31.3482 202 31.5605 202.821 31.9851C203.641 32.4098 204.264 32.9406 204.69 33.5669C205.115 34.1932 205.344 34.7877 205.344 35.3397C205.344 35.6476 205.24 35.913 205.032 36.1465C204.825 36.3801 204.565 36.4968 204.264 36.4968C203.932 36.4968 203.682 36.4119 203.516 36.2527C203.35 36.0934 203.163 35.8068 202.956 35.414C202.613 34.7558 202.218 34.2675 201.751 33.9491C201.294 33.62 200.723 33.4607 200.048 33.4607C198.979 33.4607 198.117 33.8747 197.483 34.7134C196.85 35.552 196.528 36.7304 196.528 38.2696C196.528 39.2994 196.674 40.1486 196.954 40.828C197.234 41.5074 197.639 42.017 198.148 42.3567C198.657 42.6964 199.269 42.8556 199.965 42.8556C200.713 42.8556 201.346 42.6646 201.865 42.2824C202.384 41.9002 202.779 41.3376 203.039 40.6051C203.153 40.2548 203.288 39.9788 203.454 39.7558C203.62 39.5329 203.88 39.4268 204.243 39.4268C204.555 39.4268 204.825 39.5329 205.043 39.7558C205.261 39.9788 205.375 40.2548 205.375 40.5839L205.364 40.6051Z" fill="#424242"/>
<path d="M215.967 43.2803L215.355 41.6242H210.111L209.498 43.3121C209.259 43.9703 209.052 44.4162 208.886 44.6497C208.72 44.8832 208.439 45 208.045 45C207.712 45 207.422 44.8726 207.172 44.6285C206.923 44.3843 206.799 44.1083 206.799 43.7898C206.799 43.6094 206.83 43.4289 206.882 43.2272C206.944 43.0361 207.037 42.7707 207.172 42.431L210.474 33.8641C210.568 33.62 210.682 33.3227 210.817 32.983C210.952 32.6433 211.087 32.3567 211.243 32.1232C211.388 31.9002 211.585 31.7091 211.835 31.5711C212.084 31.4331 212.374 31.3588 212.738 31.3588C213.101 31.3588 213.402 31.4331 213.652 31.5711C213.89 31.7091 214.088 31.8896 214.244 32.1125C214.389 32.3355 214.524 32.569 214.617 32.8238C214.711 33.0786 214.846 33.4183 215.012 33.8429L218.387 42.3567C218.646 43.0043 218.781 43.4714 218.781 43.7686C218.781 44.0658 218.656 44.3525 218.407 44.6072C218.158 44.862 217.857 44.9894 217.504 44.9894C217.296 44.9894 217.12 44.9469 216.974 44.8726C216.829 44.7983 216.704 44.6922 216.601 44.5648C216.497 44.4374 216.393 44.2357 216.279 43.9703C216.164 43.7049 216.061 43.4714 215.988 43.259L215.967 43.2803ZM210.796 39.6178H214.648L212.707 34.172L210.796 39.6178Z" fill="#424242"/>
<path d="M223.235 32.983V42.5796H228.531C228.956 42.5796 229.278 42.6858 229.507 42.8981C229.735 43.1104 229.849 43.3758 229.849 43.6943C229.849 44.0127 229.735 44.2781 229.517 44.4798C229.299 44.6815 228.967 44.7771 228.541 44.7771H222.228C221.657 44.7771 221.252 44.6497 221.003 44.3949C220.754 44.1401 220.629 43.7155 220.629 43.1422V32.983C220.629 32.4416 220.743 32.0382 220.982 31.7728C221.221 31.5074 221.532 31.3694 221.916 31.3694C222.301 31.3694 222.623 31.5074 222.872 31.7728C223.121 32.0382 223.235 32.4416 223.235 32.9936V32.983Z" fill="#424242"/>
<path d="M247.054 40.6051C247.054 41.0297 246.95 41.4756 246.753 41.9639C246.555 42.4522 246.233 42.9299 245.797 43.4077C245.361 43.8854 244.811 44.2569 244.136 44.5542C243.461 44.8514 242.672 45 241.779 45C241.094 45 240.481 44.9363 239.92 44.7983C239.36 44.6709 238.861 44.4586 238.404 44.1826C237.947 43.9066 237.532 43.535 237.148 43.0786C236.805 42.6646 236.514 42.1975 236.276 41.6879C236.037 41.1784 235.85 40.6263 235.736 40.0425C235.611 39.4586 235.559 38.8429 235.559 38.1847C235.559 37.1232 235.715 36.1677 236.016 35.3291C236.317 34.4905 236.753 33.7686 237.314 33.1741C237.875 32.5796 238.539 32.1232 239.297 31.8153C240.055 31.5074 240.865 31.3482 241.717 31.3482C242.765 31.3482 243.689 31.5605 244.51 31.9851C245.33 32.4098 245.953 32.9406 246.379 33.5669C246.804 34.1932 247.033 34.7877 247.033 35.3397C247.033 35.6476 246.929 35.913 246.721 36.1465C246.514 36.3801 246.254 36.4968 245.953 36.4968C245.621 36.4968 245.372 36.4119 245.205 36.2527C245.039 36.0934 244.852 35.8068 244.645 35.414C244.302 34.7558 243.907 34.2675 243.44 33.9491C242.983 33.62 242.412 33.4607 241.737 33.4607C240.668 33.4607 239.806 33.8747 239.173 34.7134C238.539 35.552 238.217 36.7304 238.217 38.2696C238.217 39.2994 238.363 40.1486 238.643 40.828C238.923 41.5074 239.328 42.017 239.837 42.3567C240.346 42.6964 240.959 42.8556 241.654 42.8556C242.402 42.8556 243.035 42.6646 243.554 42.2824C244.074 41.9002 244.468 41.3376 244.728 40.6051C244.842 40.2548 244.977 39.9788 245.143 39.7558C245.309 39.5329 245.569 39.4268 245.932 39.4268C246.244 39.4268 246.514 39.5329 246.732 39.7558C246.95 39.9788 247.064 40.2548 247.064 40.5839L247.054 40.6051Z" fill="#424242"/>
<path d="M255.08 31.3588C256.42 31.3588 257.562 31.6348 258.528 32.1868C259.493 32.7389 260.21 33.535 260.708 34.5542C261.196 35.5733 261.445 36.7728 261.445 38.1529C261.445 39.172 261.311 40.0956 261.041 40.9342C260.771 41.7728 260.366 42.4947 259.826 43.0998C259.286 43.7155 258.621 44.1826 257.832 44.5011C257.043 44.8195 256.15 44.9894 255.132 44.9894C254.115 44.9894 253.222 44.8195 252.422 44.4905C251.623 44.1614 250.958 43.6837 250.429 43.0786C249.899 42.4735 249.494 41.741 249.214 40.8917C248.933 40.0425 248.809 39.1189 248.809 38.1316C248.809 37.1444 248.954 36.189 249.235 35.3397C249.515 34.4905 249.93 33.7792 250.47 33.1847C251.01 32.5902 251.664 32.1338 252.443 31.8259C253.222 31.5074 254.094 31.3588 255.08 31.3588ZM258.798 38.1423C258.798 37.1762 258.642 36.3376 258.341 35.637C258.04 34.9257 257.604 34.3949 257.033 34.034C256.461 33.6731 255.818 33.4926 255.08 33.4926C254.561 33.4926 254.073 33.5881 253.637 33.7898C253.191 33.9915 252.817 34.2781 252.495 34.6709C252.173 35.0531 251.924 35.5414 251.737 36.1465C251.55 36.741 251.457 37.4098 251.457 38.1529C251.457 38.896 251.55 39.5754 251.737 40.1911C251.924 40.7962 252.183 41.2951 252.516 41.6985C252.848 42.1019 253.243 42.3992 253.679 42.5902C254.115 42.7919 254.592 42.8875 255.122 42.8875C255.787 42.8875 256.41 42.7176 256.96 42.3779C257.521 42.0382 257.967 41.5074 258.299 40.7962C258.632 40.0849 258.798 39.2038 258.798 38.1635V38.1423Z" fill="#424242"/>
<path d="M267.084 32.9618L272.11 40.7325V32.8875C272.11 32.3779 272.213 31.9958 272.432 31.741C272.65 31.4862 272.93 31.3588 273.293 31.3588C273.657 31.3588 273.968 31.4862 274.186 31.741C274.404 31.9958 274.508 32.3779 274.508 32.8875V43.259C274.508 44.4161 274.041 45 273.096 45C272.857 45 272.65 44.9682 272.463 44.8939C272.276 44.8302 272.099 44.7134 271.933 44.5648C271.767 44.4161 271.622 44.2357 271.476 44.034C271.331 43.8323 271.196 43.6306 271.051 43.4183L266.15 35.7325V43.4607C266.15 43.9597 266.035 44.3418 265.807 44.6072C265.578 44.862 265.288 44.9894 264.924 44.9894C264.561 44.9894 264.26 44.862 264.031 44.5966C263.803 44.3312 263.699 43.9597 263.699 43.4607V33.2909C263.699 32.8556 263.741 32.5159 263.844 32.2718C263.959 32.0064 264.146 31.7835 264.395 31.6136C264.654 31.4438 264.935 31.3588 265.236 31.3588C265.475 31.3588 265.672 31.4013 265.838 31.4756C266.004 31.5499 266.15 31.6561 266.274 31.7941C266.399 31.9215 266.534 32.1019 266.658 32.3036C266.783 32.5053 266.928 32.7283 267.063 32.9618H267.084Z" fill="#424242"/>
<path d="M285.744 33.7898H282.889V43.3652C282.889 43.9172 282.764 44.3312 282.525 44.5966C282.286 44.862 281.975 45 281.591 45C281.207 45 280.885 44.862 280.646 44.5966C280.407 44.3312 280.282 43.9172 280.282 43.3758V33.8004H277.427C276.98 33.8004 276.648 33.7049 276.43 33.5032C276.212 33.3015 276.108 33.0361 276.108 32.707C276.108 32.3779 276.222 32.0913 276.451 31.9002C276.679 31.7091 277.001 31.603 277.437 31.603H285.744C286.191 31.603 286.533 31.7091 286.751 31.9108C286.969 32.1125 287.084 32.3779 287.084 32.707C287.084 33.0361 286.969 33.3015 286.751 33.5032C286.533 33.7049 286.191 33.8004 285.744 33.8004V33.7898Z" fill="#424242"/>
<path d="M292.138 39.1295H291.224V43.3652C291.224 43.9278 291.099 44.3312 290.86 44.5966C290.622 44.862 290.31 44.9894 289.916 44.9894C289.5 44.9894 289.178 44.8514 288.95 44.5754C288.722 44.2994 288.607 43.896 288.607 43.3652V33.2166C288.607 32.6433 288.732 32.2187 288.981 31.9639C289.23 31.7091 289.646 31.5818 290.206 31.5818H294.453C295.035 31.5818 295.543 31.603 295.959 31.6561C296.374 31.7091 296.748 31.8153 297.08 31.9639C297.485 32.1338 297.838 32.3886 298.15 32.707C298.461 33.0255 298.7 33.4077 298.856 33.8323C299.022 34.2569 299.095 34.7134 299.095 35.1911C299.095 36.1784 298.825 36.9639 298.285 37.5478C297.745 38.1316 296.914 38.5563 295.813 38.8004C296.281 39.0552 296.717 39.4268 297.142 39.9151C297.568 40.4034 297.942 40.9342 298.274 41.4862C298.607 42.0382 298.866 42.5372 299.053 42.9936C299.24 43.4395 299.333 43.7474 299.333 43.9172C299.333 44.0871 299.281 44.2675 299.167 44.4374C299.063 44.6072 298.908 44.7452 298.721 44.8408C298.534 44.9363 298.316 44.9894 298.067 44.9894C297.776 44.9894 297.527 44.9151 297.329 44.7771C297.132 44.6391 296.956 44.4586 296.81 44.2463C296.665 44.034 296.468 43.7155 296.229 43.2909L295.18 41.5074C294.806 40.8493 294.474 40.3609 294.173 40.0106C293.872 39.6709 293.581 39.4374 293.269 39.31C292.958 39.1826 292.584 39.1189 292.117 39.1189L292.138 39.1295ZM293.633 33.5881H291.224V37.2187H293.56C294.183 37.2187 294.713 37.1656 295.149 37.0488C295.585 36.9321 295.907 36.7516 296.125 36.4862C296.353 36.2208 296.468 35.8493 296.468 35.3822C296.468 35.0212 296.374 34.6922 296.198 34.4161C296.021 34.1401 295.761 33.9278 295.44 33.7898C295.138 33.6624 294.536 33.5881 293.633 33.5881Z" fill="#424242"/>
<path d="M309.843 43.2803L309.23 41.6242H303.987L303.374 43.3121C303.135 43.9703 302.928 44.4162 302.761 44.6497C302.595 44.8832 302.315 45 301.92 45C301.588 45 301.297 44.8726 301.048 44.6285C300.799 44.3843 300.674 44.1083 300.674 43.7898C300.674 43.6094 300.705 43.4289 300.757 43.2272C300.82 43.0361 300.913 42.7707 301.048 42.431L304.35 33.8641C304.443 33.62 304.558 33.3227 304.693 32.983C304.828 32.6433 304.963 32.3567 305.118 32.1232C305.264 31.9002 305.461 31.7091 305.71 31.5711C305.959 31.4331 306.25 31.3588 306.614 31.3588C306.977 31.3588 307.278 31.4331 307.527 31.5711C307.766 31.7091 307.963 31.8896 308.119 32.1125C308.265 32.3355 308.4 32.569 308.493 32.8238C308.587 33.0786 308.721 33.4183 308.888 33.8429L312.262 42.3567C312.522 43.0043 312.657 43.4714 312.657 43.7686C312.657 44.0658 312.532 44.3525 312.283 44.6072C312.034 44.862 311.733 44.9894 311.38 44.9894C311.172 44.9894 310.995 44.9469 310.85 44.8726C310.705 44.7983 310.58 44.6922 310.476 44.5648C310.372 44.4374 310.269 44.2357 310.154 43.9703C310.04 43.7049 309.936 43.4714 309.864 43.259L309.843 43.2803ZM304.672 39.6178H308.524L306.583 34.172L304.672 39.6178Z" fill="#424242"/>
<path d="M325.086 40.6051C325.086 41.0297 324.982 41.4756 324.784 41.9639C324.587 42.4522 324.265 42.9299 323.829 43.4077C323.393 43.8854 322.843 44.2569 322.168 44.5542C321.493 44.8514 320.704 45 319.811 45C319.125 45 318.513 44.9363 317.952 44.7983C317.391 44.6709 316.893 44.4586 316.436 44.1826C315.979 43.9066 315.564 43.535 315.18 43.0786C314.837 42.6646 314.546 42.1975 314.308 41.6879C314.069 41.1784 313.882 40.6263 313.768 40.0425C313.643 39.4586 313.591 38.8429 313.591 38.1847C313.591 37.1232 313.747 36.1677 314.048 35.3291C314.349 34.4905 314.785 33.7686 315.346 33.1741C315.907 32.5796 316.571 32.1232 317.329 31.8153C318.087 31.5074 318.897 31.3482 319.748 31.3482C320.797 31.3482 321.721 31.5605 322.542 31.9851C323.362 32.4098 323.985 32.9406 324.411 33.5669C324.836 34.1932 325.065 34.7877 325.065 35.3397C325.065 35.6476 324.961 35.913 324.753 36.1465C324.546 36.3801 324.286 36.4968 323.985 36.4968C323.653 36.4968 323.403 36.4119 323.237 36.2527C323.071 36.0934 322.884 35.8068 322.677 35.414C322.334 34.7558 321.939 34.2675 321.472 33.9491C321.015 33.62 320.444 33.4607 319.769 33.4607C318.7 33.4607 317.838 33.8747 317.204 34.7134C316.571 35.552 316.249 36.7304 316.249 38.2696C316.249 39.2994 316.395 40.1486 316.675 40.828C316.955 41.5074 317.36 42.017 317.869 42.3567C318.378 42.6964 318.99 42.8556 319.686 42.8556C320.434 42.8556 321.067 42.6646 321.586 42.2824C322.105 41.9002 322.5 41.3376 322.76 40.6051C322.874 40.2548 323.009 39.9788 323.175 39.7558C323.341 39.5329 323.601 39.4268 323.964 39.4268C324.276 39.4268 324.546 39.5329 324.764 39.7558C324.982 39.9788 325.096 40.2548 325.096 40.5839L325.086 40.6051Z" fill="#424242"/>
<path d="M335.811 33.7898H332.955V43.3652C332.955 43.9172 332.831 44.3312 332.592 44.5966C332.353 44.862 332.042 45 331.658 45C331.273 45 330.951 44.862 330.713 44.5966C330.474 44.3312 330.349 43.9172 330.349 43.3758V33.8004H327.494C327.047 33.8004 326.715 33.7049 326.497 33.5032C326.279 33.3015 326.175 33.0361 326.175 32.707C326.175 32.3779 326.289 32.0913 326.518 31.9002C326.746 31.7091 327.068 31.603 327.504 31.603H335.811C336.257 31.603 336.6 31.7091 336.818 31.9108C337.036 32.1125 337.15 32.3779 337.15 32.707C337.15 33.0361 337.036 33.3015 336.818 33.5032C336.6 33.7049 336.257 33.8004 335.811 33.8004V33.7898Z" fill="#424242"/>
<path d="M344.138 31.3588C345.478 31.3588 346.62 31.6348 347.586 32.1868C348.551 32.7389 349.268 33.535 349.766 34.5542C350.254 35.5733 350.503 36.7728 350.503 38.1529C350.503 39.172 350.368 40.0956 350.098 40.9342C349.828 41.7728 349.423 42.4947 348.884 43.0998C348.344 43.7155 347.679 44.1826 346.89 44.5011C346.101 44.8195 345.208 44.9894 344.19 44.9894C343.173 44.9894 342.28 44.8195 341.48 44.4905C340.681 44.1614 340.016 43.6837 339.487 43.0786C338.957 42.4735 338.552 41.741 338.272 40.8917C337.991 40.0425 337.867 39.1189 337.867 38.1316C337.867 37.1444 338.012 36.189 338.292 35.3397C338.573 34.4905 338.988 33.7792 339.528 33.1847C340.068 32.5902 340.722 32.1338 341.501 31.8259C342.28 31.5074 343.152 31.3588 344.138 31.3588ZM347.845 38.1423C347.845 37.1762 347.689 36.3376 347.388 35.637C347.087 34.9257 346.651 34.3949 346.08 34.034C345.509 33.6731 344.865 33.4926 344.128 33.4926C343.609 33.4926 343.121 33.5881 342.685 33.7898C342.238 33.9915 341.864 34.2781 341.542 34.6709C341.221 35.0531 340.971 35.5414 340.784 36.1465C340.598 36.741 340.504 37.4098 340.504 38.1529C340.504 38.896 340.598 39.5754 340.784 40.1911C340.971 40.7962 341.231 41.2951 341.563 41.6985C341.895 42.1019 342.29 42.3992 342.726 42.5902C343.162 42.7919 343.64 42.8875 344.169 42.8875C344.834 42.8875 345.457 42.7176 346.007 42.3779C346.568 42.0382 347.014 41.5074 347.347 40.7962C347.679 40.0849 347.845 39.2038 347.845 38.1635V38.1423Z" fill="#424242"/>
<path d="M356.247 39.1295H355.333V43.3652C355.333 43.9278 355.209 44.3312 354.97 44.5966C354.731 44.862 354.42 44.9894 354.025 44.9894C353.61 44.9894 353.288 44.8514 353.059 44.5754C352.831 44.2994 352.717 43.896 352.717 43.3652V33.2166C352.717 32.6433 352.841 32.2187 353.091 31.9639C353.34 31.7091 353.755 31.5818 354.316 31.5818H358.563C359.144 31.5818 359.653 31.603 360.068 31.6561C360.484 31.7091 360.857 31.8153 361.19 31.9639C361.595 32.1338 361.948 32.3886 362.259 32.707C362.571 33.0255 362.81 33.4077 362.965 33.8323C363.131 34.2569 363.204 34.7134 363.204 35.1911C363.204 36.1784 362.934 36.9639 362.394 37.5478C361.854 38.1316 361.024 38.5563 359.923 38.8004C360.39 39.0552 360.826 39.4268 361.252 39.9151C361.678 40.4034 362.052 40.9342 362.384 41.4862C362.716 42.0382 362.976 42.5372 363.163 42.9936C363.349 43.4395 363.443 43.7474 363.443 43.9172C363.443 44.0871 363.391 44.2675 363.277 44.4374C363.173 44.6072 363.017 44.7452 362.83 44.8408C362.643 44.9363 362.425 44.9894 362.176 44.9894C361.885 44.9894 361.636 44.9151 361.439 44.7771C361.242 44.6391 361.065 44.4586 360.92 44.2463C360.774 44.034 360.577 43.7155 360.338 43.2909L359.29 41.5074C358.916 40.8493 358.583 40.3609 358.282 40.0106C357.981 39.6709 357.69 39.4374 357.379 39.31C357.067 39.1826 356.694 39.1189 356.226 39.1189L356.247 39.1295ZM357.742 33.5881H355.333V37.2187H357.67C358.293 37.2187 358.822 37.1656 359.258 37.0488C359.694 36.9321 360.016 36.7516 360.234 36.4862C360.463 36.2208 360.577 35.8493 360.577 35.3822C360.577 35.0212 360.484 34.6922 360.307 34.4161C360.131 34.1401 359.871 33.9278 359.549 33.7898C359.248 33.6624 358.646 33.5881 357.742 33.5881Z" fill="#424242"/>
<path d="M375.497 40.8174C375.497 41.6136 375.3 42.3355 374.895 42.9724C374.49 43.6093 373.909 44.1083 373.13 44.4692C372.351 44.8301 371.437 45.0106 370.378 45.0106C369.101 45.0106 368.052 44.7665 367.232 44.2781C366.651 43.9278 366.173 43.4501 365.799 42.8662C365.436 42.2718 365.249 41.6985 365.249 41.1465C365.249 40.828 365.363 40.5414 365.581 40.3185C365.799 40.0849 366.079 39.9682 366.422 39.9682C366.702 39.9682 366.931 40.0531 367.118 40.2335C367.305 40.414 367.471 40.6794 367.606 41.0297C367.772 41.4544 367.948 41.8047 368.135 42.0807C368.322 42.3673 368.592 42.5902 368.945 42.7813C369.288 42.9618 369.745 43.0573 370.306 43.0573C371.084 43.0573 371.707 42.8769 372.195 42.5053C372.683 42.1338 372.922 41.6773 372.922 41.1253C372.922 40.69 372.787 40.3291 372.528 40.0637C372.268 39.7877 371.925 39.586 371.52 39.4374C371.115 39.2888 370.555 39.1401 369.859 38.9809C368.935 38.758 368.156 38.5032 367.533 38.2059C366.91 37.9087 366.412 37.5053 366.048 36.9958C365.685 36.4862 365.498 35.8493 365.498 35.0849C365.498 34.3206 365.695 33.7155 366.079 33.1529C366.464 32.5902 367.024 32.155 367.762 31.8578C368.499 31.5605 369.361 31.4013 370.347 31.4013C371.136 31.4013 371.821 31.4968 372.403 31.6985C372.984 31.9002 373.462 32.1656 373.836 32.4947C374.21 32.8238 374.5 33.1741 374.677 33.5456C374.853 33.9066 374.937 34.2675 374.937 34.6178C374.937 34.9363 374.822 35.2229 374.604 35.4777C374.386 35.7325 374.106 35.8599 373.784 35.8599C373.483 35.8599 373.254 35.7856 373.099 35.6263C372.943 35.4671 372.777 35.2229 372.59 34.8726C372.351 34.3737 372.071 33.9915 371.749 33.7049C371.427 33.4183 370.887 33.2909 370.16 33.2909C369.485 33.2909 368.945 33.4395 368.53 33.7473C368.115 34.0552 367.907 34.4161 367.907 34.8408C367.907 35.1062 367.98 35.3291 368.115 35.5202C368.25 35.7113 368.447 35.8811 368.696 36.0191C368.945 36.1571 369.194 36.2633 369.444 36.3482C369.693 36.4225 370.108 36.5393 370.69 36.6879C371.417 36.8578 372.071 37.0488 372.663 37.2611C373.254 37.4735 373.753 37.7282 374.168 38.0255C374.583 38.3227 374.905 38.7049 375.134 39.1614C375.362 39.6178 375.476 40.1805 375.476 40.8493L375.497 40.8174Z" fill="#424242"/>
</g>
<defs>
<clipPath id="clip0_67_1044">
<rect width="394" height="45" fill="white"/>
</clipPath>
</defs>
</svg>
